<svg width="372" height="672" viewBox="0 0 372 672" fill="none" xmlns="http://www.w3.org/2000/svg">
<g filter="url(#filter0_d_4967_79152)">
<path d="M28 70.2243C28 44.6953 48.7112 24 74.25 24H277.75C303.293 24 324 44.6969 324 70.2243V577.776C324 603.305 303.289 624 277.75 624H74.25C48.7068 624 28 603.303 28 577.776V70.2243Z" fill="white"/>
</g>
<g filter="url(#filter1_d_4967_79152)">
<rect x="44" y="60" width="264" height="548" rx="26" fill="white"/>
</g>
<mask id="mask0_4967_79152" style="mask-type:alpha" maskUnits="userSpaceOnUse" x="44" y="40" width="264" height="564">
<path d="M44 66.3995C44 51.8194 55.7917 40 70.3468 40H99.4864C100.504 40 101.329 40.8302 101.329 41.8553V46.0281C101.329 53.6956 107.538 59.9113 115.189 59.9113H233.055C240.71 59.9113 246.916 53.6932 246.916 46.0281V41.8553C246.916 40.8307 247.745 40 248.766 40H281.651C296.203 40 308 51.8124 308 66.3995V577.601C308 592.181 296.195 604 281.654 604H70.3459C55.7955 604 44 592.188 44 577.601V66.3995Z" fill="white"/>
</mask>
<g mask="url(#mask0_4967_79152)">
<rect x="56" y="532" width="240" height="50" rx="12" fill="white"/>
<rect x="56.5" y="532.5" width="239" height="49" rx="11.5" stroke="#D7D8DB" stroke-opacity="0.6"/>
<path d="M223.638 553H225.159V551.037H226.316V549.698H225.159V544.329H223.066L219.504 549.815V551.037H223.638V553ZM223.638 545.694V549.698H220.999L223.638 545.694ZM227.214 548.684C227.214 551.089 228.241 553.156 230.789 553.156C232.726 553.156 233.987 551.856 233.987 550.244C233.987 548.398 232.648 547.449 231.088 547.449C230.061 547.449 229.151 548.073 228.761 548.658C228.748 548.58 228.748 548.502 228.748 548.411C228.748 546.89 229.593 545.551 231.036 545.551C231.868 545.551 232.362 545.837 232.817 546.318L233.532 545.161C232.947 544.589 232.115 544.199 231.036 544.199C228.527 544.199 227.214 546.175 227.214 548.684ZM232.453 550.296C232.453 550.998 231.855 551.804 230.711 551.804C229.372 551.804 228.865 550.712 228.774 549.776C229.216 549.152 229.931 548.749 230.672 548.749C231.621 548.749 232.453 549.23 232.453 550.296ZM235.021 548.671C235.021 550.855 236.061 553.156 238.492 553.156C240.923 553.156 241.963 550.855 241.963 548.671C241.963 546.487 240.923 544.199 238.492 544.199C236.061 544.199 235.021 546.487 235.021 548.671ZM240.416 548.671C240.416 550.322 239.909 551.804 238.492 551.804C237.075 551.804 236.568 550.322 236.568 548.671C236.568 547.02 237.075 545.551 238.492 545.551C239.909 545.551 240.416 547.02 240.416 548.671ZM242.845 552.233C242.845 552.727 243.261 553.143 243.755 553.143C244.249 553.143 244.665 552.727 244.665 552.233C244.665 551.739 244.249 551.323 243.755 551.323C243.261 551.323 242.845 551.739 242.845 552.233ZM246.684 553H248.205V544.329H246.879L244.383 546.851L245.267 547.774L246.684 546.305V553ZM249.776 553H256.055V551.661H252.207C254.534 549.906 256.003 548.476 256.003 546.877C256.003 545.148 254.534 544.199 252.857 544.199C251.648 544.199 250.426 544.667 249.659 545.59L250.543 546.591C251.089 545.967 251.869 545.551 252.883 545.551C253.676 545.551 254.456 545.967 254.456 546.877C254.456 548.125 253.143 549.256 249.776 551.804V553ZM263.355 553H264.434V545.291H267.19V544.329H260.612V545.291H263.355V553ZM273.642 553H274.916L272.576 549.464C273.759 549.36 274.825 548.502 274.825 546.942C274.825 545.343 273.694 544.329 272.108 544.329H268.624V553H269.703V549.555H271.432L273.642 553ZM273.707 546.942C273.707 547.917 273.005 548.606 271.978 548.606H269.703V545.291H271.978C273.005 545.291 273.707 545.967 273.707 546.942ZM282.527 553H283.827L280.46 548.541L283.632 544.329H282.319L279.758 547.8L277.184 544.329H275.871L279.056 548.554L275.676 553H276.989L279.758 549.308L282.527 553Z" fill="#414244"/>
<path d="M104.53 569H105.817V562.796H108.039V561.663H102.308V562.796H104.53V569ZM113.321 569H114.806L113.013 566.118C113.893 565.975 114.751 565.271 114.751 563.962C114.751 562.609 113.805 561.663 112.353 561.663H109.13V569H110.417V566.261H111.693L113.321 569ZM113.431 563.962C113.431 564.666 112.903 565.128 112.177 565.128H110.417V562.796H112.177C112.903 562.796 113.431 563.258 113.431 563.962ZM120.943 569H122.483L119.744 565.227L122.318 561.663H120.767L118.886 564.358L116.994 561.663H115.454L118.039 565.238L115.289 569H116.829L118.886 566.129L120.943 569Z" fill="#909295" fill-opacity="0.98"/>
<path d="M104.86 553H106.719V545.954H109.241V544.329H102.325V545.954H104.86V553ZM109.497 553H111.148V548.853C111.421 548.45 112.149 548.151 112.695 548.151C112.877 548.151 113.033 548.164 113.15 548.19V546.578C112.37 546.578 111.59 547.02 111.148 547.579V546.721H109.497V553ZM117.093 553.156C119.173 553.156 120.421 551.648 120.421 549.854C120.421 548.073 119.173 546.565 117.093 546.565C115.026 546.565 113.778 548.073 113.778 549.854C113.778 551.648 115.026 553.156 117.093 553.156ZM117.093 551.687C116.066 551.687 115.494 550.842 115.494 549.854C115.494 548.879 116.066 548.034 117.093 548.034C118.12 548.034 118.705 548.879 118.705 549.854C118.705 550.842 118.12 551.687 117.093 551.687ZM125.884 553H127.535V548.567C127.535 547.345 126.872 546.565 125.494 546.565C124.467 546.565 123.7 547.059 123.297 547.54V546.721H121.646V553H123.297V548.775C123.57 548.398 124.077 548.034 124.727 548.034C125.429 548.034 125.884 548.333 125.884 549.204V553Z" fill="#414244"/>
<circle cx="81" cy="557" r="13" fill="#F04045"/>
<path fill-rule="evenodd" clip-rule="evenodd" d="M74.5273 550.556C74.7802 550.453 75.0639 550.416 75.3532 550.463L85.0655 552.058C85.2216 552.084 85.366 552.157 85.4789 552.268L87.9705 554.719C88.5416 555.28 88.5842 556.187 88.0681 556.8L81.2031 564.951C81.0439 565.14 80.8415 565.287 80.613 565.381C79.8297 565.703 78.9338 565.329 78.6119 564.546L73.6864 552.559C73.5783 552.296 73.5455 552.008 73.5916 551.728C73.6789 551.196 74.0304 550.773 74.49 550.571L74.5126 550.545L74.5273 550.556ZM75.4159 552.855L79.7608 563.429L80.7897 556.997L75.4159 552.855ZM81.9872 557.674L86.4222 556.439L81.1902 562.651L81.9872 557.674ZM85.1742 554.06L82.8257 556.088L86.2629 555.131L85.1742 554.06ZM81.2617 555.748L76.6476 552.191L83.9842 553.396L81.2617 555.748Z" fill="white"/>
<rect x="56" y="472" width="240" height="50" rx="12" fill="white"/>
<rect x="56.5" y="472.5" width="239" height="49" rx="11.5" stroke="#D7D8DB" stroke-opacity="0.6"/>
<path d="M198.479 493H200V484.329H198.674L196.178 486.851L197.062 487.774L198.479 486.305V493ZM201.455 488.671C201.455 490.855 202.495 493.156 204.926 493.156C207.357 493.156 208.397 490.855 208.397 488.671C208.397 486.487 207.357 484.199 204.926 484.199C202.495 484.199 201.455 486.487 201.455 488.671ZM206.85 488.671C206.85 490.322 206.343 491.804 204.926 491.804C203.509 491.804 203.002 490.322 203.002 488.671C203.002 487.02 203.509 485.551 204.926 485.551C206.343 485.551 206.85 487.02 206.85 488.671ZM209.279 492.233C209.279 492.727 209.695 493.143 210.189 493.143C210.683 493.143 211.099 492.727 211.099 492.233C211.099 491.739 210.683 491.323 210.189 491.323C209.695 491.323 209.279 491.739 209.279 492.233ZM212.439 493H218.718V491.661H214.87C217.197 489.906 218.666 488.476 218.666 486.877C218.666 485.148 217.197 484.199 215.52 484.199C214.311 484.199 213.089 484.667 212.322 485.59L213.206 486.591C213.752 485.967 214.532 485.551 215.546 485.551C216.339 485.551 217.119 485.967 217.119 486.877C217.119 488.125 215.806 489.256 212.439 491.804V493ZM220.054 488.671C220.054 490.855 221.094 493.156 223.525 493.156C225.956 493.156 226.996 490.855 226.996 488.671C226.996 486.487 225.956 484.199 223.525 484.199C221.094 484.199 220.054 486.487 220.054 488.671ZM225.449 488.671C225.449 490.322 224.942 491.804 223.525 491.804C222.108 491.804 221.601 490.322 221.601 488.671C221.601 487.02 222.108 485.551 223.525 485.551C224.942 485.551 225.449 487.02 225.449 488.671ZM232.029 493H233.55V491.037H234.707V489.698H233.55V484.329H231.457L227.895 489.815V491.037H232.029V493ZM232.029 485.694V489.698H229.39L232.029 485.694ZM235.618 490.777C235.618 492.337 237.165 493.156 238.946 493.156C240.714 493.156 242.261 492.324 242.261 490.777C242.261 489.672 241.364 488.879 240.311 488.528C241.286 488.216 242.131 487.579 242.131 486.474C242.131 484.875 240.467 484.199 238.946 484.199C237.399 484.199 235.761 484.875 235.761 486.474C235.761 487.579 236.593 488.216 237.568 488.528C236.515 488.879 235.618 489.672 235.618 490.777ZM240.584 486.708C240.584 487.527 239.479 487.839 238.946 487.93C238.413 487.839 237.295 487.527 237.295 486.708C237.295 485.98 237.997 485.551 238.946 485.551C239.869 485.551 240.584 485.98 240.584 486.708ZM240.727 490.582C240.727 491.336 239.908 491.804 238.946 491.804C237.958 491.804 237.152 491.336 237.152 490.582C237.152 489.685 238.4 489.282 238.946 489.217C239.479 489.282 240.727 489.685 240.727 490.582ZM244.377 493H246.041L249.408 485.382V484.329H243.155V485.668H247.653L244.377 493ZM251.296 493H252.96L256.327 485.382V484.329H250.074V485.668H254.572L251.296 493ZM266.987 493H268.287L264.92 488.541L268.092 484.329H266.779L264.218 487.8L261.644 484.329H260.331L263.516 488.554L260.136 493H261.449L264.218 489.308L266.987 493ZM274.493 493H275.767L273.427 489.464C274.61 489.36 275.676 488.502 275.676 486.942C275.676 485.343 274.545 484.329 272.959 484.329H269.475V493H270.554V489.555H272.283L274.493 493ZM274.558 486.942C274.558 487.917 273.856 488.606 272.829 488.606H270.554V485.291H272.829C273.856 485.291 274.558 485.967 274.558 486.942ZM277.384 493H278.463V489.555H280.868C282.584 489.555 283.585 488.359 283.585 486.942C283.585 485.525 282.61 484.329 280.868 484.329H277.384V493ZM282.467 486.942C282.467 487.917 281.765 488.593 280.738 488.593H278.463V485.291H280.738C281.765 485.291 282.467 485.967 282.467 486.942Z" fill="#414244"/>
<path d="M107.687 509H109.227L106.488 505.227L109.062 501.663H107.511L105.63 504.358L103.738 501.663H102.198L104.783 505.238L102.033 509H103.573L105.63 506.129L107.687 509ZM114.244 509H115.729L113.936 506.118C114.816 505.975 115.674 505.271 115.674 503.962C115.674 502.609 114.728 501.663 113.276 501.663H110.053V509H111.34V506.261H112.616L114.244 509ZM114.354 503.962C114.354 504.666 113.826 505.128 113.1 505.128H111.34V502.796H113.1C113.826 502.796 114.354 503.258 114.354 503.962ZM116.961 509H118.248V506.261H120.184C121.713 506.261 122.582 505.205 122.582 503.962C122.582 502.719 121.724 501.663 120.184 501.663H116.961V509ZM121.262 503.962C121.262 504.666 120.734 505.128 120.008 505.128H118.248V502.796H120.008C120.734 502.796 121.262 503.258 121.262 503.962Z" fill="#909295" fill-opacity="0.98"/>
<path d="M237.407 509H238.694V501.663H237.572L235.46 503.797L236.208 504.578L237.407 503.335V509ZM241.586 509H242.873V501.663H241.751L239.639 503.797L240.387 504.578L241.586 503.335V509ZM244.796 510.463C245.401 510.034 245.83 509.341 245.83 508.582C245.83 507.944 245.423 507.581 244.972 507.581C244.565 507.581 244.224 507.922 244.224 508.34C244.224 508.747 244.51 509.033 244.884 509.033C244.95 509.033 245.038 509.011 245.071 509C244.994 509.374 244.631 509.825 244.279 510.034L244.796 510.463ZM246.965 507.999C247.559 508.703 248.428 509.132 249.693 509.132C251.332 509.132 252.487 508.175 252.487 506.646C252.487 505.15 251.376 504.281 250.144 504.281C249.44 504.281 248.835 504.567 248.483 504.919V502.796H252.003V501.663H247.196V505.766L248.109 506.03C248.571 505.59 249.088 505.392 249.715 505.392C250.617 505.392 251.189 505.909 251.189 506.701C251.189 507.416 250.606 507.988 249.682 507.988C248.857 507.988 248.197 507.68 247.702 507.119L246.965 507.999ZM256.75 509H258.037V507.339H259.016V506.206H258.037V501.663H256.266L253.252 506.305V507.339H256.75V509ZM256.75 502.818V506.206H254.517L256.75 502.818ZM263.008 506.151C263.008 507.955 264.009 509.132 266 509.132C267.991 509.132 268.992 507.966 268.992 506.14V501.663H268.079V506.129C268.079 507.471 267.353 508.318 266 508.318C264.647 508.318 263.921 507.471 263.921 506.129V501.663H263.008V506.151ZM270.271 507.966C270.876 508.648 271.811 509.132 273.087 509.132C275.067 509.132 275.793 508.043 275.793 506.976C275.793 505.436 274.429 505.062 273.23 504.743C272.295 504.49 271.448 504.27 271.448 503.533C271.448 502.84 272.075 502.367 272.955 502.367C273.758 502.367 274.528 502.642 275.078 503.247L275.628 502.576C275.012 501.927 274.143 501.553 273.021 501.553C271.58 501.553 270.502 502.378 270.502 503.588C270.502 505.029 271.811 505.359 272.988 505.667C273.956 505.931 274.847 506.173 274.847 507.053C274.847 507.614 274.429 508.318 273.12 508.318C272.086 508.318 271.294 507.812 270.81 507.273L270.271 507.966ZM277.156 509H279.664C281.941 509 283.426 507.427 283.426 505.337C283.426 503.258 281.941 501.663 279.664 501.663H277.156V509ZM278.069 508.186V502.477H279.664C281.479 502.477 282.48 503.753 282.48 505.337C282.48 506.91 281.446 508.186 279.664 508.186H278.069Z" fill="#909295" fill-opacity="0.98"/>
<path d="M107.759 493H109.878L107.928 489.698C108.864 489.477 109.826 488.658 109.826 487.124C109.826 485.512 108.721 484.329 106.914 484.329H102.858V493H104.704V489.893H106.056L107.759 493ZM107.941 487.111C107.941 487.839 107.382 488.307 106.641 488.307H104.704V485.915H106.641C107.382 485.915 107.941 486.383 107.941 487.111ZM111.992 485.798C112.538 485.798 112.98 485.356 112.98 484.81C112.98 484.264 112.538 483.822 111.992 483.822C111.459 483.822 111.004 484.264 111.004 484.81C111.004 485.356 111.459 485.798 111.992 485.798ZM111.173 493H112.824V486.721H111.173V493ZM116.112 495.392V492.194C116.619 492.844 117.308 493.156 118.049 493.156C119.661 493.156 120.831 491.947 120.831 489.854C120.831 487.761 119.661 486.565 118.049 486.565C117.282 486.565 116.593 486.903 116.112 487.514V486.721H114.461V495.392H116.112ZM119.115 489.854C119.115 490.946 118.478 491.687 117.529 491.687C116.996 491.687 116.385 491.362 116.112 490.972V488.749C116.385 488.346 116.996 488.034 117.529 488.034C118.478 488.034 119.115 488.775 119.115 489.854ZM123.716 495.392V492.194C124.223 492.844 124.912 493.156 125.653 493.156C127.265 493.156 128.435 491.947 128.435 489.854C128.435 487.761 127.265 486.565 125.653 486.565C124.886 486.565 124.197 486.903 123.716 487.514V486.721H122.065V495.392H123.716ZM126.719 489.854C126.719 490.946 126.082 491.687 125.133 491.687C124.6 491.687 123.989 491.362 123.716 490.972V488.749C123.989 488.346 124.6 488.034 125.133 488.034C126.082 488.034 126.719 488.775 126.719 489.854ZM129.67 493H131.321V484.329H129.67V493ZM132.555 489.854C132.555 491.869 133.998 493.156 135.909 493.156C136.884 493.156 137.859 492.87 138.496 492.285L137.768 491.219C137.365 491.609 136.676 491.843 136.091 491.843C135.025 491.843 134.388 491.18 134.284 490.387H138.951V490.023C138.951 487.969 137.677 486.565 135.805 486.565C133.894 486.565 132.555 488.034 132.555 489.854ZM135.805 487.878C136.897 487.878 137.313 488.671 137.352 489.269H134.258C134.336 488.645 134.778 487.878 135.805 487.878Z" fill="#414244"/>
<circle cx="81" cy="497" r="13" fill="black"/>
<path fill-rule="evenodd" clip-rule="evenodd" d="M88.7712 490.76H86.5151L82.949 494.311C81.8724 495.383 80.1275 495.383 79.0515 494.311L75.4854 490.76H73.2293L77.9231 495.435C79.6226 497.127 82.3773 497.127 84.0768 495.435L88.7712 490.76ZM73.2002 503.76H75.4563L79.0511 500.18C80.1277 499.108 81.8727 499.108 82.9486 500.18L86.5441 503.76H88.8002L84.077 499.056C82.3776 497.364 79.6228 497.364 77.9234 499.056L73.2002 503.76Z" fill="white"/>
<rect x="56" y="412" width="240" height="50" rx="12" fill="white"/>
<rect x="56.5" y="412.5" width="239" height="49" rx="11.5" stroke="#D7D8DB" stroke-opacity="0.6"/>
<path d="M218.271 431.752C218.856 432.532 220 433.156 221.547 433.156C223.549 433.156 224.81 432.103 224.81 430.634C224.81 429.295 223.64 428.606 222.795 428.528C223.692 428.372 224.68 427.696 224.68 426.539C224.68 425.083 223.419 424.199 221.547 424.199C220.104 424.199 219.051 424.784 218.388 425.564L219.168 426.513C219.792 425.889 220.52 425.551 221.404 425.551C222.379 425.551 223.159 425.967 223.159 426.773C223.159 427.566 222.392 427.917 221.378 427.917C221.04 427.917 220.533 427.917 220.377 427.904V429.269C220.507 429.256 221.014 429.256 221.378 429.256C222.613 429.256 223.302 429.62 223.302 430.478C223.302 431.284 222.639 431.804 221.495 431.804C220.572 431.804 219.649 431.401 219.09 430.751L218.271 431.752ZM226.152 431.817C226.854 432.649 227.881 433.156 229.376 433.156C231.313 433.156 232.678 432.025 232.678 430.218C232.678 428.45 231.365 427.423 229.909 427.423C229.077 427.423 228.362 427.761 227.946 428.177V425.668H232.106V424.329H226.425V429.178L227.504 429.49C228.05 428.97 228.661 428.736 229.402 428.736C230.468 428.736 231.144 429.347 231.144 430.283C231.144 431.128 230.455 431.804 229.363 431.804C228.388 431.804 227.608 431.44 227.023 430.777L226.152 431.817ZM233.895 432.233C233.895 432.727 234.311 433.143 234.805 433.143C235.299 433.143 235.715 432.727 235.715 432.233C235.715 431.739 235.299 431.323 234.805 431.323C234.311 431.323 233.895 431.739 233.895 432.233ZM237.733 433H239.254V424.329H237.928L235.432 426.851L236.316 427.774L237.733 426.305V433ZM240.826 433H247.105V431.661H243.257C245.584 429.906 247.053 428.476 247.053 426.877C247.053 425.148 245.584 424.199 243.907 424.199C242.698 424.199 241.476 424.667 240.709 425.59L241.593 426.591C242.139 425.967 242.919 425.551 243.933 425.551C244.726 425.551 245.506 425.967 245.506 426.877C245.506 428.125 244.193 429.256 240.826 431.804V433ZM258.487 433H259.683L256.186 424.329H254.847L251.363 433H252.559L253.326 431.076H257.72L258.487 433ZM255.523 425.291L257.395 430.114H253.638L255.523 425.291ZM262.705 433H264.044L267.541 424.329H266.306L263.381 431.817L260.456 424.329H259.221L262.705 433ZM274.204 433H275.4L271.903 424.329H270.564L267.08 433H268.276L269.043 431.076H273.437L274.204 433ZM271.24 425.291L273.112 430.114H269.355L271.24 425.291ZM282.527 433H283.827L280.46 428.541L283.632 424.329H282.319L279.758 427.8L277.184 424.329H275.871L279.056 428.554L275.676 433H276.989L279.758 429.308L282.527 433Z" fill="#414244"/>
<path d="M107.973 449H109.381L106.499 441.663H104.893L102.011 449H103.419L103.958 447.592H107.434L107.973 449ZM105.696 442.752L107.071 446.459H104.321L105.696 442.752ZM111.747 449H113.353L116.235 441.663H114.772L112.55 447.603L110.328 441.663H108.865L111.747 449ZM121.68 449H123.088L120.206 441.663H118.6L115.718 449H117.126L117.665 447.592H121.141L121.68 449ZM119.403 442.752L120.778 446.459H118.028L119.403 442.752ZM128.795 449H130.335L127.596 445.227L130.17 441.663H128.619L126.738 444.358L124.846 441.663H123.306L125.891 445.238L123.141 449H124.681L126.738 446.129L128.795 449Z" fill="#909295" fill-opacity="0.98"/>
<path d="M231.155 447.944C231.65 448.604 232.618 449.132 233.927 449.132C235.621 449.132 236.688 448.241 236.688 446.998C236.688 445.865 235.698 445.282 234.983 445.216C235.742 445.084 236.578 444.512 236.578 443.533C236.578 442.301 235.511 441.553 233.927 441.553C232.706 441.553 231.815 442.048 231.254 442.708L231.914 443.511C232.442 442.983 233.058 442.697 233.806 442.697C234.631 442.697 235.291 443.049 235.291 443.731C235.291 444.402 234.642 444.699 233.784 444.699C233.498 444.699 233.069 444.699 232.937 444.688V445.843C233.047 445.832 233.476 445.832 233.784 445.832C234.829 445.832 235.412 446.14 235.412 446.866C235.412 447.548 234.851 447.988 233.883 447.988C233.102 447.988 232.321 447.647 231.848 447.097L231.155 447.944ZM237.658 445.337C237.658 447.185 238.538 449.132 240.595 449.132C242.652 449.132 243.532 447.185 243.532 445.337C243.532 443.489 242.652 441.553 240.595 441.553C238.538 441.553 237.658 443.489 237.658 445.337ZM242.223 445.337C242.223 446.734 241.794 447.988 240.595 447.988C239.396 447.988 238.967 446.734 238.967 445.337C238.967 443.94 239.396 442.697 240.595 442.697C241.794 442.697 242.223 443.94 242.223 445.337ZM244.278 448.351C244.278 448.769 244.63 449.121 245.048 449.121C245.466 449.121 245.818 448.769 245.818 448.351C245.818 447.933 245.466 447.581 245.048 447.581C244.63 447.581 244.278 447.933 244.278 448.351ZM246.952 449H252.265V447.867H249.009C250.978 446.382 252.221 445.172 252.221 443.819C252.221 442.356 250.978 441.553 249.559 441.553C248.536 441.553 247.502 441.949 246.853 442.73L247.601 443.577C248.063 443.049 248.723 442.697 249.581 442.697C250.252 442.697 250.912 443.049 250.912 443.819C250.912 444.875 249.801 445.832 246.952 447.988V449ZM256.75 449H258.037V447.339H259.016V446.206H258.037V441.663H256.266L253.252 446.305V447.339H256.75V449ZM256.75 442.818V446.206H254.517L256.75 442.818ZM263.008 446.151C263.008 447.955 264.009 449.132 266 449.132C267.991 449.132 268.992 447.966 268.992 446.14V441.663H268.079V446.129C268.079 447.471 267.353 448.318 266 448.318C264.647 448.318 263.921 447.471 263.921 446.129V441.663H263.008V446.151ZM270.271 447.966C270.876 448.648 271.811 449.132 273.087 449.132C275.067 449.132 275.793 448.043 275.793 446.976C275.793 445.436 274.429 445.062 273.23 444.743C272.295 444.49 271.448 444.27 271.448 443.533C271.448 442.84 272.075 442.367 272.955 442.367C273.758 442.367 274.528 442.642 275.078 443.247L275.628 442.576C275.012 441.927 274.143 441.553 273.021 441.553C271.58 441.553 270.502 442.378 270.502 443.588C270.502 445.029 271.811 445.359 272.988 445.667C273.956 445.931 274.847 446.173 274.847 447.053C274.847 447.614 274.429 448.318 273.12 448.318C272.086 448.318 271.294 447.812 270.81 447.273L270.271 447.966ZM277.156 449H279.664C281.941 449 283.426 447.427 283.426 445.337C283.426 443.258 281.941 441.663 279.664 441.663H277.156V449ZM278.069 448.186V442.477H279.664C281.479 442.477 282.48 443.753 282.48 445.337C282.48 446.91 281.446 448.186 279.664 448.186H278.069Z" fill="#909295" fill-opacity="0.98"/>
<path d="M108.929 433H110.944L107.603 424.329H105.289L101.935 433H103.963L104.509 431.505H108.383L108.929 433ZM106.446 425.928L107.876 429.906H105.003L106.446 425.928ZM113.077 433H114.858L117.38 426.721H115.599L113.961 431.089L112.323 426.721H110.555L113.077 433ZM121.887 433H123.538V428.944C123.538 427.137 122.225 426.565 120.795 426.565C119.807 426.565 118.819 426.877 118.052 427.553L118.676 428.658C119.209 428.164 119.833 427.917 120.509 427.917C121.341 427.917 121.887 428.333 121.887 428.97V429.841C121.471 429.334 120.73 429.074 119.898 429.074C118.897 429.074 117.714 429.607 117.714 431.076C117.714 432.48 118.897 433.156 119.898 433.156C120.717 433.156 121.458 432.857 121.887 432.35V433ZM121.887 431.492C121.614 431.856 121.094 432.038 120.561 432.038C119.911 432.038 119.378 431.7 119.378 431.115C119.378 430.517 119.911 430.166 120.561 430.166C121.094 430.166 121.614 430.348 121.887 430.712V431.492ZM125.175 433H126.826V424.329H125.175V433ZM132.234 433H133.885V428.944C133.885 427.137 132.572 426.565 131.142 426.565C130.154 426.565 129.166 426.877 128.399 427.553L129.023 428.658C129.556 428.164 130.18 427.917 130.856 427.917C131.688 427.917 132.234 428.333 132.234 428.97V429.841C131.818 429.334 131.077 429.074 130.245 429.074C129.244 429.074 128.061 429.607 128.061 431.076C128.061 432.48 129.244 433.156 130.245 433.156C131.064 433.156 131.805 432.857 132.234 432.35V433ZM132.234 431.492C131.961 431.856 131.441 432.038 130.908 432.038C130.258 432.038 129.725 431.7 129.725 431.115C129.725 430.517 130.258 430.166 130.908 430.166C131.441 430.166 131.961 430.348 132.234 430.712V431.492ZM139.76 433H141.411V428.567C141.411 427.345 140.748 426.565 139.37 426.565C138.343 426.565 137.576 427.059 137.173 427.54V426.721H135.522V433H137.173V428.775C137.446 428.398 137.953 428.034 138.603 428.034C139.305 428.034 139.76 428.333 139.76 429.204V433ZM142.647 429.854C142.647 431.791 144.038 433.156 145.975 433.156C147.262 433.156 148.042 432.597 148.458 432.012L147.379 431.011C147.08 431.427 146.625 431.687 146.053 431.687C145.052 431.687 144.35 430.946 144.35 429.854C144.35 428.762 145.052 428.034 146.053 428.034C146.625 428.034 147.08 428.281 147.379 428.71L148.458 427.709C148.042 427.124 147.262 426.565 145.975 426.565C144.038 426.565 142.647 427.93 142.647 429.854ZM153.789 433H155.44V428.541C155.44 427.319 154.777 426.565 153.399 426.565C152.372 426.565 151.592 427.059 151.189 427.54V424.329H149.538V433H151.189V428.775C151.475 428.398 151.982 428.034 152.619 428.034C153.334 428.034 153.789 428.307 153.789 429.178V433ZM156.676 429.854C156.676 431.869 158.119 433.156 160.03 433.156C161.005 433.156 161.98 432.87 162.617 432.285L161.889 431.219C161.486 431.609 160.797 431.843 160.212 431.843C159.146 431.843 158.509 431.18 158.405 430.387H163.072V430.023C163.072 427.969 161.798 426.565 159.926 426.565C158.015 426.565 156.676 428.034 156.676 429.854ZM159.926 427.878C161.018 427.878 161.434 428.671 161.473 429.269H158.379C158.457 428.645 158.899 427.878 159.926 427.878Z" fill="#414244"/>
<g clip-path="url(#clip0_4967_79152)">
<path d="M81 450C88.1797 450 94 444.18 94 437C94 429.82 88.1797 424 81 424C73.8203 424 68 429.82 68 437C68 444.18 73.8203 450 81 450Z" fill="#E84142"/>
<path d="M84.6985 436.905C85.0618 436.266 85.648 436.266 86.0113 436.905L88.2734 440.947C88.6367 441.586 88.3394 442.107 87.6129 442.107L83.0556 442.107C82.3373 442.107 82.0401 441.586 82.3951 440.947L84.6985 436.905ZM80.3229 429.122C80.6861 428.483 81.2641 428.483 81.6273 429.122L82.1309 430.046L83.3198 432.173C83.6088 432.778 83.6088 433.492 83.3198 434.097L79.3321 441.132C78.9689 441.704 78.3662 442.065 77.6975 442.107L74.3868 442.107C73.6603 442.107 73.3631 441.594 73.7263 440.947L80.3229 429.122Z" fill="white"/>
</g>
<rect x="56" y="352" width="240" height="50" rx="12" fill="white"/>
<rect x="56.5" y="352.5" width="239" height="49" rx="11.5" stroke="#D7D8DB" stroke-opacity="0.6"/>
<path d="M203.892 368.671C203.892 370.855 204.932 373.156 207.363 373.156C209.794 373.156 210.834 370.855 210.834 368.671C210.834 366.487 209.794 364.199 207.363 364.199C204.932 364.199 203.892 366.487 203.892 368.671ZM209.287 368.671C209.287 370.322 208.78 371.804 207.363 371.804C205.946 371.804 205.439 370.322 205.439 368.671C205.439 367.02 205.946 365.551 207.363 365.551C208.78 365.551 209.287 367.02 209.287 368.671ZM211.716 372.233C211.716 372.727 212.132 373.143 212.626 373.143C213.12 373.143 213.536 372.727 213.536 372.233C213.536 371.739 213.12 371.323 212.626 371.323C212.132 371.323 211.716 371.739 211.716 372.233ZM214.539 371.752C215.124 372.532 216.268 373.156 217.815 373.156C219.817 373.156 221.078 372.103 221.078 370.634C221.078 369.295 219.908 368.606 219.063 368.528C219.96 368.372 220.948 367.696 220.948 366.539C220.948 365.083 219.687 364.199 217.815 364.199C216.372 364.199 215.319 364.784 214.656 365.564L215.436 366.513C216.06 365.889 216.788 365.551 217.672 365.551C218.647 365.551 219.427 365.967 219.427 366.773C219.427 367.566 218.66 367.917 217.646 367.917C217.308 367.917 216.801 367.917 216.645 367.904V369.269C216.775 369.256 217.282 369.256 217.646 369.256C218.881 369.256 219.57 369.62 219.57 370.478C219.57 371.284 218.907 371.804 217.763 371.804C216.84 371.804 215.917 371.401 215.358 370.751L214.539 371.752ZM226.189 373H227.71V371.037H228.867V369.698H227.71V364.329H225.617L222.055 369.815V371.037H226.189V373ZM226.189 365.694V369.698H223.55L226.189 365.694ZM230.194 372.181C230.779 372.766 231.611 373.143 232.677 373.143C235.186 373.143 236.499 371.167 236.499 368.671C236.499 366.253 235.472 364.186 232.924 364.186C230.987 364.186 229.726 365.499 229.726 367.098C229.726 368.944 231.078 369.906 232.638 369.906C233.652 369.906 234.562 369.269 234.965 368.684V368.944C234.965 370.361 234.25 371.791 232.677 371.791C231.858 371.791 231.351 371.505 230.896 371.037L230.194 372.181ZM234.939 367.579C234.51 368.203 233.782 368.593 233.041 368.593C232.105 368.593 231.273 368.112 231.273 367.046C231.273 366.357 231.871 365.538 233.002 365.538C234.341 365.538 234.861 366.643 234.939 367.579ZM237.586 370.777C237.586 372.337 239.133 373.156 240.914 373.156C242.682 373.156 244.229 372.324 244.229 370.777C244.229 369.672 243.332 368.879 242.279 368.528C243.254 368.216 244.099 367.579 244.099 366.474C244.099 364.875 242.435 364.199 240.914 364.199C239.367 364.199 237.729 364.875 237.729 366.474C237.729 367.579 238.561 368.216 239.536 368.528C238.483 368.879 237.586 369.672 237.586 370.777ZM242.552 366.708C242.552 367.527 241.447 367.839 240.914 367.93C240.381 367.839 239.263 367.527 239.263 366.708C239.263 365.98 239.965 365.551 240.914 365.551C241.837 365.551 242.552 365.98 242.552 366.708ZM242.695 370.582C242.695 371.336 241.876 371.804 240.914 371.804C239.926 371.804 239.12 371.336 239.12 370.582C239.12 369.685 240.368 369.282 240.914 369.217C241.447 369.282 242.695 369.685 242.695 370.582ZM245.499 371.817C246.201 372.649 247.228 373.156 248.723 373.156C250.66 373.156 252.025 372.025 252.025 370.218C252.025 368.45 250.712 367.423 249.256 367.423C248.424 367.423 247.709 367.761 247.293 368.177V365.668H251.453V364.329H245.772V369.178L246.851 369.49C247.397 368.97 248.008 368.736 248.749 368.736C249.815 368.736 250.491 369.347 250.491 370.283C250.491 371.128 249.802 371.804 248.71 371.804C247.735 371.804 246.955 371.44 246.37 370.777L245.499 371.817ZM254.139 373H255.803L259.17 365.382V364.329H252.917V365.668H257.415L254.139 373ZM263.838 373H268.947V372.038H264.917V364.329H263.838V373ZM271.315 373H272.394V365.291H275.15V364.329H268.572V365.291H271.315V373ZM280.298 373.156C281.871 373.156 282.911 372.428 283.639 371.44L282.716 370.933C282.222 371.674 281.325 372.194 280.298 372.194C278.439 372.194 276.996 370.725 276.996 368.671C276.996 366.604 278.439 365.148 280.298 365.148C281.325 365.148 282.222 365.681 282.716 366.409L283.626 365.902C282.937 364.927 281.871 364.186 280.298 364.186C277.841 364.186 275.878 366.006 275.878 368.671C275.878 371.336 277.841 373.156 280.298 373.156Z" fill="#414244"/>
<path d="M102.781 389H107.302V387.867H104.068V381.663H102.781V389ZM109.117 389H110.404V382.796H112.626V381.663H106.895V382.796H109.117V389ZM116.902 389.132C118.442 389.132 119.344 388.362 119.905 387.482L118.805 386.921C118.453 387.537 117.749 387.988 116.902 387.988C115.505 387.988 114.427 386.877 114.427 385.337C114.427 383.797 115.505 382.686 116.902 382.686C117.749 382.686 118.453 383.148 118.805 383.753L119.905 383.192C119.355 382.312 118.442 381.542 116.902 381.542C114.79 381.542 113.107 383.082 113.107 385.337C113.107 387.592 114.79 389.132 116.902 389.132Z" fill="#909295" fill-opacity="0.98"/>
<path d="M234.371 387.119C234.371 388.439 235.68 389.132 237.187 389.132C238.683 389.132 239.992 388.428 239.992 387.119C239.992 386.184 239.233 385.513 238.342 385.216C239.167 384.952 239.882 384.413 239.882 383.478C239.882 382.125 238.474 381.553 237.187 381.553C235.878 381.553 234.492 382.125 234.492 383.478C234.492 384.413 235.196 384.952 236.021 385.216C235.13 385.513 234.371 386.184 234.371 387.119ZM238.573 383.676C238.573 384.369 237.638 384.633 237.187 384.71C236.736 384.633 235.79 384.369 235.79 383.676C235.79 383.06 236.384 382.697 237.187 382.697C237.968 382.697 238.573 383.06 238.573 383.676ZM238.694 386.954C238.694 387.592 238.001 387.988 237.187 387.988C236.351 387.988 235.669 387.592 235.669 386.954C235.669 386.195 236.725 385.854 237.187 385.799C237.638 385.854 238.694 386.195 238.694 386.954ZM244.257 389H245.544V387.339H246.523V386.206H245.544V381.663H243.773L240.759 386.305V387.339H244.257V389ZM244.257 382.818V386.206H242.024L244.257 382.818ZM247.976 390.463C248.581 390.034 249.01 389.341 249.01 388.582C249.01 387.944 248.603 387.581 248.152 387.581C247.745 387.581 247.404 387.922 247.404 388.34C247.404 388.747 247.69 389.033 248.064 389.033C248.13 389.033 248.218 389.011 248.251 389C248.174 389.374 247.811 389.825 247.459 390.034L247.976 390.463ZM250.652 389H251.939V381.663H250.817L248.705 383.797L249.453 384.578L250.652 383.335V389ZM253.533 388.307C254.028 388.802 254.732 389.121 255.634 389.121C257.757 389.121 258.868 387.449 258.868 385.337C258.868 383.291 257.999 381.542 255.843 381.542C254.204 381.542 253.137 382.653 253.137 384.006C253.137 385.568 254.281 386.382 255.601 386.382C256.459 386.382 257.229 385.843 257.57 385.348V385.568C257.57 386.767 256.965 387.977 255.634 387.977C254.941 387.977 254.512 387.735 254.127 387.339L253.533 388.307ZM257.548 384.413C257.185 384.941 256.569 385.271 255.942 385.271C255.15 385.271 254.446 384.864 254.446 383.962C254.446 383.379 254.952 382.686 255.909 382.686C257.042 382.686 257.482 383.621 257.548 384.413ZM263.008 386.151C263.008 387.955 264.009 389.132 266 389.132C267.991 389.132 268.992 387.966 268.992 386.14V381.663H268.079V386.129C268.079 387.471 267.353 388.318 266 388.318C264.647 388.318 263.921 387.471 263.921 386.129V381.663H263.008V386.151ZM270.271 387.966C270.876 388.648 271.811 389.132 273.087 389.132C275.067 389.132 275.793 388.043 275.793 386.976C275.793 385.436 274.429 385.062 273.23 384.743C272.295 384.49 271.448 384.27 271.448 383.533C271.448 382.84 272.075 382.367 272.955 382.367C273.758 382.367 274.528 382.642 275.078 383.247L275.628 382.576C275.012 381.927 274.143 381.553 273.021 381.553C271.58 381.553 270.502 382.378 270.502 383.588C270.502 385.029 271.811 385.359 272.988 385.667C273.956 385.931 274.847 386.173 274.847 387.053C274.847 387.614 274.429 388.318 273.12 388.318C272.086 388.318 271.294 387.812 270.81 387.273L270.271 387.966ZM277.156 389H279.664C281.941 389 283.426 387.427 283.426 385.337C283.426 383.258 281.941 381.663 279.664 381.663H277.156V389ZM278.069 388.186V382.477H279.664C281.479 382.477 282.48 383.753 282.48 385.337C282.48 386.91 281.446 388.186 279.664 388.186H278.069Z" fill="#909295" fill-opacity="0.98"/>
<path d="M102.858 373H108.37V371.375H104.704V364.329H102.858V373ZM110.443 365.798C110.989 365.798 111.431 365.356 111.431 364.81C111.431 364.264 110.989 363.822 110.443 363.822C109.91 363.822 109.455 364.264 109.455 364.81C109.455 365.356 109.91 365.798 110.443 365.798ZM109.624 373H111.275V366.721H109.624V373ZM115.018 373.156C115.707 373.156 116.149 372.974 116.396 372.753L116.045 371.505C115.954 371.596 115.72 371.687 115.473 371.687C115.109 371.687 114.901 371.388 114.901 370.998V368.164H116.175V366.721H114.901V365.005H113.237V366.721H112.197V368.164H113.237V371.44C113.237 372.558 113.861 373.156 115.018 373.156ZM116.901 369.854C116.901 371.869 118.344 373.156 120.255 373.156C121.23 373.156 122.205 372.87 122.842 372.285L122.114 371.219C121.711 371.609 121.022 371.843 120.437 371.843C119.371 371.843 118.734 371.18 118.63 370.387H123.297V370.023C123.297 367.969 122.023 366.565 120.151 366.565C118.24 366.565 116.901 368.034 116.901 369.854ZM120.151 367.878C121.243 367.878 121.659 368.671 121.698 369.269H118.604C118.682 368.645 119.124 367.878 120.151 367.878ZM124.087 369.854C124.087 371.791 125.478 373.156 127.415 373.156C128.702 373.156 129.482 372.597 129.898 372.012L128.819 371.011C128.52 371.427 128.065 371.687 127.493 371.687C126.492 371.687 125.79 370.946 125.79 369.854C125.79 368.762 126.492 368.034 127.493 368.034C128.065 368.034 128.52 368.281 128.819 368.71L129.898 367.709C129.482 367.124 128.702 366.565 127.415 366.565C125.478 366.565 124.087 367.93 124.087 369.854ZM133.889 373.156C135.969 373.156 137.217 371.648 137.217 369.854C137.217 368.073 135.969 366.565 133.889 366.565C131.822 366.565 130.574 368.073 130.574 369.854C130.574 371.648 131.822 373.156 133.889 373.156ZM133.889 371.687C132.862 371.687 132.29 370.842 132.29 369.854C132.29 368.879 132.862 368.034 133.889 368.034C134.916 368.034 135.501 368.879 135.501 369.854C135.501 370.842 134.916 371.687 133.889 371.687ZM139.261 365.798C139.807 365.798 140.249 365.356 140.249 364.81C140.249 364.264 139.807 363.822 139.261 363.822C138.728 363.822 138.273 364.264 138.273 364.81C138.273 365.356 138.728 365.798 139.261 365.798ZM138.442 373H140.093V366.721H138.442V373ZM145.968 373H147.619V368.567C147.619 367.345 146.956 366.565 145.578 366.565C144.551 366.565 143.784 367.059 143.381 367.54V366.721H141.73V373H143.381V368.775C143.654 368.398 144.161 368.034 144.811 368.034C145.513 368.034 145.968 368.333 145.968 369.204V373Z" fill="#414244"/>
<path d="M81.0001 390C73.8203 390 68 384.18 68 377C68 369.82 73.8203 364 81.0001 364C88.1797 364 94 369.82 94 377C94 384.18 88.1798 390 81.0001 390Z" fill="#7EB7E4"/>
<path d="M81.0847 377.293L83.0838 376.563L83.581 374.694L83.564 374.648L81.5962 375.367L83.014 370.028H78.993L77.1388 376.995L75.5906 377.561L75.0791 379.487L76.6261 378.922L75.5332 383.028H86.2348L86.9209 380.473H80.2403L81.0847 377.293Z" fill="white"/>
<rect x="56" y="234" width="240" height="50" rx="12" fill="white"/>
<rect x="56.5" y="234.5" width="239" height="49" rx="11.5" stroke="#D7D8DB" stroke-opacity="0.6"/>
<path d="M185.04 250.671C185.04 252.855 186.08 255.156 188.511 255.156C190.942 255.156 191.982 252.855 191.982 250.671C191.982 248.487 190.942 246.199 188.511 246.199C186.08 246.199 185.04 248.487 185.04 250.671ZM190.435 250.671C190.435 252.322 189.928 253.804 188.511 253.804C187.094 253.804 186.587 252.322 186.587 250.671C186.587 249.02 187.094 247.551 188.511 247.551C189.928 247.551 190.435 249.02 190.435 250.671ZM192.864 254.233C192.864 254.727 193.28 255.143 193.774 255.143C194.268 255.143 194.684 254.727 194.684 254.233C194.684 253.739 194.268 253.323 193.774 253.323C193.28 253.323 192.864 253.739 192.864 254.233ZM195.907 250.671C195.907 252.855 196.947 255.156 199.378 255.156C201.809 255.156 202.849 252.855 202.849 250.671C202.849 248.487 201.809 246.199 199.378 246.199C196.947 246.199 195.907 248.487 195.907 250.671ZM201.302 250.671C201.302 252.322 200.795 253.804 199.378 253.804C197.961 253.804 197.454 252.322 197.454 250.671C197.454 249.02 197.961 247.551 199.378 247.551C200.795 247.551 201.302 249.02 201.302 250.671ZM204.035 255H210.314V253.661H206.466C208.793 251.906 210.262 250.476 210.262 248.877C210.262 247.148 208.793 246.199 207.116 246.199C205.907 246.199 204.685 246.667 203.918 247.59L204.802 248.591C205.348 247.967 206.128 247.551 207.142 247.551C207.935 247.551 208.715 247.967 208.715 248.877C208.715 250.125 207.402 251.256 204.035 253.804V255ZM212.078 254.181C212.663 254.766 213.495 255.143 214.561 255.143C217.07 255.143 218.383 253.167 218.383 250.671C218.383 248.253 217.356 246.186 214.808 246.186C212.871 246.186 211.61 247.499 211.61 249.098C211.61 250.944 212.962 251.906 214.522 251.906C215.536 251.906 216.446 251.269 216.849 250.684V250.944C216.849 252.361 216.134 253.791 214.561 253.791C213.742 253.791 213.235 253.505 212.78 253.037L212.078 254.181ZM216.823 249.579C216.394 250.203 215.666 250.593 214.925 250.593C213.989 250.593 213.157 250.112 213.157 249.046C213.157 248.357 213.755 247.538 214.886 247.538C216.225 247.538 216.745 248.643 216.823 249.579ZM219.457 250.671C219.457 252.855 220.497 255.156 222.928 255.156C225.359 255.156 226.399 252.855 226.399 250.671C226.399 248.487 225.359 246.199 222.928 246.199C220.497 246.199 219.457 248.487 219.457 250.671ZM224.852 250.671C224.852 252.322 224.345 253.804 222.928 253.804C221.511 253.804 221.004 252.322 221.004 250.671C221.004 249.02 221.511 247.551 222.928 247.551C224.345 247.551 224.852 249.02 224.852 250.671ZM227.247 253.752C227.832 254.532 228.976 255.156 230.523 255.156C232.525 255.156 233.786 254.103 233.786 252.634C233.786 251.295 232.616 250.606 231.771 250.528C232.668 250.372 233.656 249.696 233.656 248.539C233.656 247.083 232.395 246.199 230.523 246.199C229.08 246.199 228.027 246.784 227.364 247.564L228.144 248.513C228.768 247.889 229.496 247.551 230.38 247.551C231.355 247.551 232.135 247.967 232.135 248.773C232.135 249.566 231.368 249.917 230.354 249.917C230.016 249.917 229.509 249.917 229.353 249.904V251.269C229.483 251.256 229.99 251.256 230.354 251.256C231.589 251.256 232.278 251.62 232.278 252.478C232.278 253.284 231.615 253.804 230.471 253.804C229.548 253.804 228.625 253.401 228.066 252.751L227.247 253.752ZM234.945 252.777C234.945 254.337 236.492 255.156 238.273 255.156C240.041 255.156 241.588 254.324 241.588 252.777C241.588 251.672 240.691 250.879 239.638 250.528C240.613 250.216 241.458 249.579 241.458 248.474C241.458 246.875 239.794 246.199 238.273 246.199C236.726 246.199 235.088 246.875 235.088 248.474C235.088 249.579 235.92 250.216 236.895 250.528C235.842 250.879 234.945 251.672 234.945 252.777ZM239.911 248.708C239.911 249.527 238.806 249.839 238.273 249.93C237.74 249.839 236.622 249.527 236.622 248.708C236.622 247.98 237.324 247.551 238.273 247.551C239.196 247.551 239.911 247.98 239.911 248.708ZM240.054 252.582C240.054 253.336 239.235 253.804 238.273 253.804C237.285 253.804 236.479 253.336 236.479 252.582C236.479 251.685 237.727 251.282 238.273 251.217C238.806 251.282 240.054 251.685 240.054 252.582ZM246.629 255H248.15V253.037H249.307V251.698H248.15V246.329H246.057L242.495 251.815V253.037H246.629V255ZM246.629 247.694V251.698H243.99L246.629 247.694ZM251.245 255H252.909L256.276 247.382V246.329H250.023V247.668H254.521L251.245 255ZM260.944 255H266.625V254.038H262.023V251.048H266.534V250.086H262.023V247.291H266.625V246.329H260.944V255ZM270.49 255H271.569V247.291H274.325V246.329H267.747V247.291H270.49V255ZM281.908 255H282.987V246.329H281.908V250.06H276.838V246.329H275.759V255H276.838V251.022H281.908V255Z" fill="#414244"/>
<path d="M230.972 271H232.259V263.663H231.137L229.025 265.797L229.773 266.578L230.972 265.335V271ZM236.845 271H238.132V269.339H239.111V268.206H238.132V263.663H236.361L233.347 268.305V269.339H236.845V271ZM236.845 264.818V268.206H234.612L236.845 264.818ZM240.751 271H242.159L245.008 264.554V263.663H239.717V264.796H243.523L240.751 271ZM245.376 272.463C245.981 272.034 246.41 271.341 246.41 270.582C246.41 269.944 246.003 269.581 245.552 269.581C245.145 269.581 244.804 269.922 244.804 270.34C244.804 270.747 245.09 271.033 245.464 271.033C245.53 271.033 245.618 271.011 245.651 271C245.574 271.374 245.211 271.825 244.859 272.034L245.376 272.463ZM247.391 269.119C247.391 270.439 248.7 271.132 250.207 271.132C251.703 271.132 253.012 270.428 253.012 269.119C253.012 268.184 252.253 267.513 251.362 267.216C252.187 266.952 252.902 266.413 252.902 265.478C252.902 264.125 251.494 263.553 250.207 263.553C248.898 263.553 247.512 264.125 247.512 265.478C247.512 266.413 248.216 266.952 249.041 267.216C248.15 267.513 247.391 268.184 247.391 269.119ZM251.593 265.676C251.593 266.369 250.658 266.633 250.207 266.71C249.756 266.633 248.81 266.369 248.81 265.676C248.81 265.06 249.404 264.697 250.207 264.697C250.988 264.697 251.593 265.06 251.593 265.676ZM251.714 268.954C251.714 269.592 251.021 269.988 250.207 269.988C249.371 269.988 248.689 269.592 248.689 268.954C248.689 268.195 249.745 267.854 250.207 267.799C250.658 267.854 251.714 268.195 251.714 268.954ZM254.802 271H256.21L259.059 264.554V263.663H253.768V264.796H257.574L254.802 271ZM263.008 268.151C263.008 269.955 264.009 271.132 266 271.132C267.991 271.132 268.992 269.966 268.992 268.14V263.663H268.079V268.129C268.079 269.471 267.353 270.318 266 270.318C264.647 270.318 263.921 269.471 263.921 268.129V263.663H263.008V268.151ZM270.271 269.966C270.876 270.648 271.811 271.132 273.087 271.132C275.067 271.132 275.793 270.043 275.793 268.976C275.793 267.436 274.429 267.062 273.23 266.743C272.295 266.49 271.448 266.27 271.448 265.533C271.448 264.84 272.075 264.367 272.955 264.367C273.758 264.367 274.528 264.642 275.078 265.247L275.628 264.576C275.012 263.927 274.143 263.553 273.021 263.553C271.58 263.553 270.502 264.378 270.502 265.588C270.502 267.029 271.811 267.359 272.988 267.667C273.956 267.931 274.847 268.173 274.847 269.053C274.847 269.614 274.429 270.318 273.12 270.318C272.086 270.318 271.294 269.812 270.81 269.273L270.271 269.966ZM277.156 271H279.664C281.941 271 283.426 269.427 283.426 267.337C283.426 265.258 281.941 263.663 279.664 263.663H277.156V271ZM278.069 270.186V264.477H279.664C281.479 264.477 282.48 265.753 282.48 267.337C282.48 268.91 281.446 270.186 279.664 270.186H278.069Z" fill="#909295" fill-opacity="0.98"/>
<path d="M98.781 271H103.808V269.867H100.068V267.832H103.731V266.699H100.068V264.796H103.808V263.663H98.781V271ZM106.879 271H108.166V264.796H110.388V263.663H104.657V264.796H106.879V271ZM116.582 271H117.869V263.663H116.582V266.666H112.765V263.663H111.478V271H112.765V267.799H116.582V271Z" fill="#909295" fill-opacity="0.98"/>
<path d="M98.858 255H104.994V253.401H100.704V251.386H104.903V249.8H100.704V247.915H104.994V246.329H98.858V255ZM108.504 255.156C109.193 255.156 109.635 254.974 109.882 254.753L109.531 253.505C109.44 253.596 109.206 253.687 108.959 253.687C108.595 253.687 108.387 253.388 108.387 252.998V250.164H109.661V248.721H108.387V247.005H106.723V248.721H105.683V250.164H106.723V253.44C106.723 254.558 107.347 255.156 108.504 255.156ZM115.042 255H116.693V250.541C116.693 249.319 116.03 248.565 114.652 248.565C113.625 248.565 112.845 249.059 112.442 249.54V246.329H110.791V255H112.442V250.775C112.728 250.398 113.235 250.034 113.872 250.034C114.587 250.034 115.042 250.307 115.042 251.178V255ZM117.929 251.854C117.929 253.869 119.372 255.156 121.283 255.156C122.258 255.156 123.233 254.87 123.87 254.285L123.142 253.219C122.739 253.609 122.05 253.843 121.465 253.843C120.399 253.843 119.762 253.18 119.658 252.387H124.325V252.023C124.325 249.969 123.051 248.565 121.179 248.565C119.268 248.565 117.929 250.034 117.929 251.854ZM121.179 249.878C122.271 249.878 122.687 250.671 122.726 251.269H119.632C119.71 250.645 120.152 249.878 121.179 249.878ZM125.517 255H127.168V250.853C127.441 250.45 128.169 250.151 128.715 250.151C128.897 250.151 129.053 250.164 129.17 250.19V248.578C128.39 248.578 127.61 249.02 127.168 249.579V248.721H125.517V255ZM129.799 251.854C129.799 253.869 131.242 255.156 133.153 255.156C134.128 255.156 135.103 254.87 135.74 254.285L135.012 253.219C134.609 253.609 133.92 253.843 133.335 253.843C132.269 253.843 131.632 253.18 131.528 252.387H136.195V252.023C136.195 249.969 134.921 248.565 133.049 248.565C131.138 248.565 129.799 250.034 129.799 251.854ZM133.049 249.878C134.141 249.878 134.557 250.671 134.596 251.269H131.502C131.58 250.645 132.022 249.878 133.049 249.878ZM141.625 255H143.276V248.721H141.625V252.972C141.339 253.336 140.832 253.687 140.195 253.687C139.493 253.687 139.038 253.401 139.038 252.53V248.721H137.387V253.18C137.387 254.402 138.037 255.156 139.415 255.156C140.442 255.156 141.196 254.688 141.625 254.207V255ZM152.703 255H154.367V250.463C154.367 249.176 153.678 248.565 152.521 248.565C151.559 248.565 150.727 249.137 150.363 249.709C150.129 248.994 149.544 248.565 148.621 248.565C147.659 248.565 146.827 249.163 146.567 249.54V248.721H144.916V255H146.567V250.775C146.814 250.424 147.295 250.034 147.867 250.034C148.543 250.034 148.803 250.45 148.803 251.035V255H150.467V250.762C150.701 250.424 151.182 250.034 151.767 250.034C152.443 250.034 152.703 250.45 152.703 251.035V255Z" fill="#414244"/>
<path d="M89.641 261.903C88.0381 268.331 81.5262 272.244 75.0961 270.641C68.6686 269.038 64.7559 262.526 66.3594 256.098C67.9616 249.669 74.4735 245.756 80.9016 247.359C87.3313 248.962 91.2438 255.474 89.6408 261.903L89.6409 261.903H89.641Z" fill="#7C97FF"/>
<path d="M78.1279 251.27L78.0225 251.628V262.024L78.1279 262.129L82.9532 259.277L78.1279 251.27Z" fill="#EFEFEF"/>
<path d="M78.1291 251.27L73.3037 259.276L78.1291 262.129V257.083V251.27Z" fill="white"/>
<path d="M78.1278 263.041L78.0684 263.113V266.816L78.1278 266.99L82.956 260.19L78.1278 263.041Z" fill="#D3D3D3"/>
<path d="M78.1291 266.99V263.041L73.3037 260.19L78.1291 266.99Z" fill="white"/>
<path d="M78.1279 262.127L82.9531 259.274L78.1279 257.081V262.127Z" fill="#D3D3D3"/>
<path d="M73.3037 259.274L78.1291 262.127V257.081L73.3037 259.274Z" fill="#F3F3F3"/>
<g filter="url(#filter2_bi_4967_79152)">
<path fill-rule="evenodd" clip-rule="evenodd" d="M44 553V608H308V553H44Z" fill="white"/>
</g>
<g filter="url(#filter3_d_4967_79152)">
<circle cx="176" cy="556" r="30" fill="url(#paint0_linear_4967_79152)"/>
</g>
<path fill-rule="evenodd" clip-rule="evenodd" d="M164.351 557.827C163.876 558.302 163.885 559.085 164.371 559.571C164.857 560.057 165.64 560.066 166.133 559.574L177.407 548.3L177.434 552.232C177.438 552.552 177.584 552.874 177.818 553.108C178.052 553.342 178.391 553.471 178.712 553.474C179.05 553.461 179.351 553.339 179.579 553.111C179.808 552.882 179.929 552.546 179.925 552.225L179.81 545.357C179.802 544.68 179.244 544.123 178.568 544.115L171.735 544C171.397 544.014 171.096 544.135 170.867 544.364C170.639 544.592 170.5 544.875 170.504 545.231C170.53 545.925 171.087 546.483 171.764 546.491L175.607 546.571L164.351 557.827ZM179.902 567.509C180.24 567.531 180.559 567.392 180.787 567.163C181.016 566.935 181.137 566.634 181.133 566.313C181.129 565.957 181.001 565.653 180.767 565.42C180.533 565.186 180.211 565.039 179.891 565.036L175.994 564.973L187.268 553.699C187.743 553.224 187.734 552.441 187.248 551.955C186.762 551.469 185.979 551.46 185.504 551.935L174.248 563.191L174.203 559.348C174.178 558.654 173.62 558.096 172.943 558.088C172.25 558.098 171.705 558.643 171.712 559.319L171.791 566.152C171.799 566.828 172.357 567.386 173.033 567.394L179.902 567.509Z" fill="white"/>
<path d="M264.256 594H265.496L263.44 588.664H262.016L259.952 594H261.2L261.536 593.08H263.92L264.256 594ZM262.728 589.648L263.608 592.096H261.84L262.728 589.648ZM265.717 592.064C265.717 593.256 266.573 594.096 267.765 594.096C268.557 594.096 269.037 593.752 269.293 593.392L268.629 592.776C268.445 593.032 268.165 593.192 267.813 593.192C267.197 593.192 266.765 592.736 266.765 592.064C266.765 591.392 267.197 590.944 267.813 590.944C268.165 590.944 268.445 591.096 268.629 591.36L269.293 590.744C269.037 590.384 268.557 590.04 267.765 590.04C266.573 590.04 265.717 590.88 265.717 592.064ZM269.709 592.064C269.709 593.256 270.565 594.096 271.757 594.096C272.549 594.096 273.029 593.752 273.285 593.392L272.621 592.776C272.437 593.032 272.157 593.192 271.805 593.192C271.189 593.192 270.757 592.736 270.757 592.064C270.757 591.392 271.189 590.944 271.805 590.944C272.157 590.944 272.437 591.096 272.621 591.36L273.285 590.744C273.029 590.384 272.549 590.04 271.757 590.04C270.565 590.04 269.709 590.88 269.709 592.064ZM275.741 594.096C277.021 594.096 277.789 593.168 277.789 592.064C277.789 590.968 277.021 590.04 275.741 590.04C274.469 590.04 273.701 590.968 273.701 592.064C273.701 593.168 274.469 594.096 275.741 594.096ZM275.741 593.192C275.109 593.192 274.757 592.672 274.757 592.064C274.757 591.464 275.109 590.944 275.741 590.944C276.373 590.944 276.733 591.464 276.733 592.064C276.733 592.672 276.373 593.192 275.741 593.192ZM281.151 594H282.167V590.136H281.151V592.752C280.975 592.976 280.663 593.192 280.271 593.192C279.839 593.192 279.559 593.016 279.559 592.48V590.136H278.543V592.88C278.543 593.632 278.943 594.096 279.791 594.096C280.423 594.096 280.887 593.808 281.151 593.512V594ZM285.784 594H286.8V591.272C286.8 590.52 286.392 590.04 285.544 590.04C284.912 590.04 284.44 590.344 284.192 590.64V590.136H283.176V594H284.192V591.4C284.36 591.168 284.672 590.944 285.072 590.944C285.504 590.944 285.784 591.128 285.784 591.664V594ZM289.105 594.096C289.529 594.096 289.801 593.984 289.953 593.848L289.737 593.08C289.681 593.136 289.537 593.192 289.385 593.192C289.161 593.192 289.033 593.008 289.033 592.768V591.024H289.817V590.136H289.033V589.08H288.009V590.136H287.369V591.024H288.009V593.04C288.009 593.728 288.393 594.096 289.105 594.096Z" fill="#B2B3B5"/>
<path d="M268 570H282" stroke="#C6C7C9" stroke-width="2" stroke-linecap="round" stroke-linejoin="round"/>
<path d="M268 565H282" stroke="#C6C7C9" stroke-width="2" stroke-linecap="round" stroke-linejoin="round"/>
<path d="M268 575H282" stroke="#C6C7C9" stroke-width="2" stroke-linecap="round" stroke-linejoin="round"/>
<path d="M221.482 594.096C222.698 594.096 223.37 593.448 223.754 592.784L222.778 592.312C222.554 592.752 222.074 593.088 221.482 593.088C220.554 593.088 219.85 592.344 219.85 591.336C219.85 590.328 220.554 589.584 221.482 589.584C222.074 589.584 222.554 589.928 222.778 590.36L223.754 589.88C223.378 589.216 222.698 588.576 221.482 588.576C219.922 588.576 218.682 589.696 218.682 591.336C218.682 592.976 219.922 594.096 221.482 594.096ZM227.022 594H228.038V591.256C228.038 590.504 227.63 590.04 226.782 590.04C226.15 590.04 225.67 590.344 225.422 590.64V588.664H224.406V594H225.422V591.4C225.598 591.168 225.91 590.944 226.302 590.944C226.742 590.944 227.022 591.112 227.022 591.648V594ZM231.367 594H232.383V591.504C232.383 590.392 231.575 590.04 230.695 590.04C230.087 590.04 229.479 590.232 229.007 590.648L229.391 591.328C229.719 591.024 230.103 590.872 230.519 590.872C231.031 590.872 231.367 591.128 231.367 591.52V592.056C231.111 591.744 230.655 591.584 230.143 591.584C229.527 591.584 228.799 591.912 228.799 592.816C228.799 593.68 229.527 594.096 230.143 594.096C230.647 594.096 231.103 593.912 231.367 593.6V594ZM231.367 593.072C231.199 593.296 230.879 593.408 230.551 593.408C230.151 593.408 229.823 593.2 229.823 592.84C229.823 592.472 230.151 592.256 230.551 592.256C230.879 592.256 231.199 592.368 231.367 592.592V593.072ZM234.687 594.096C235.111 594.096 235.383 593.984 235.535 593.848L235.319 593.08C235.263 593.136 235.119 593.192 234.967 593.192C234.743 593.192 234.615 593.008 234.615 592.768V591.024H235.399V590.136H234.615V589.08H233.591V590.136H232.951V591.024H233.591V593.04C233.591 593.728 233.975 594.096 234.687 594.096Z" fill="#B2B3B5"/>
<path fill-rule="evenodd" clip-rule="evenodd" d="M219.952 563H233.286C233.857 563 234.238 563.376 234.238 563.941V573.353C234.238 573.918 233.857 574.294 233.286 574.294H225.667L220.905 579V574.294H219.952C219.381 574.294 219 573.918 219 573.353V563.941C219 563.376 219.381 563 219.952 563ZM221.857 568.647C221.857 569.212 222.238 569.588 222.809 569.588C223.381 569.588 223.762 569.212 223.762 568.647C223.762 568.082 223.381 567.706 222.809 567.706C222.238 567.706 221.857 568.082 221.857 568.647ZM226.619 569.588C226.048 569.588 225.667 569.212 225.667 568.647C225.667 568.082 226.048 567.706 226.619 567.706C227.191 567.706 227.572 568.082 227.572 568.647C227.572 569.212 227.191 569.588 226.619 569.588ZM229.476 568.647C229.476 569.212 229.857 569.588 230.429 569.588C231 569.588 231.381 569.212 231.381 568.647C231.381 568.082 231 567.706 230.429 567.706C229.857 567.706 229.476 568.082 229.476 568.647Z" fill="#C6C7C9"/>
<path d="M116.248 594H117.488L115.432 588.664H114.008L111.944 594H113.192L113.528 593.08H115.912L116.248 594ZM114.72 589.648L115.6 592.096H113.832L114.72 589.648ZM117.621 593.496C118.029 593.872 118.677 594.096 119.349 594.096C120.421 594.096 121.021 593.568 121.021 592.856C121.021 591.896 120.133 591.72 119.469 591.592C119.037 591.504 118.733 591.416 118.733 591.176C118.733 590.952 118.973 590.816 119.341 590.816C119.813 590.816 120.253 591.016 120.485 591.264L120.885 590.568C120.509 590.264 119.989 590.04 119.333 590.04C118.317 590.04 117.749 590.608 117.749 591.256C117.749 592.176 118.605 592.336 119.269 592.464C119.709 592.552 120.045 592.648 120.045 592.92C120.045 593.16 119.837 593.312 119.397 593.312C118.917 593.312 118.341 593.048 118.061 592.784L117.621 593.496ZM121.434 593.496C121.842 593.872 122.49 594.096 123.162 594.096C124.234 594.096 124.834 593.568 124.834 592.856C124.834 591.896 123.946 591.72 123.282 591.592C122.85 591.504 122.546 591.416 122.546 591.176C122.546 590.952 122.786 590.816 123.154 590.816C123.626 590.816 124.066 591.016 124.298 591.264L124.698 590.568C124.322 590.264 123.802 590.04 123.146 590.04C122.13 590.04 121.562 590.608 121.562 591.256C121.562 592.176 122.418 592.336 123.082 592.464C123.522 592.552 123.858 592.648 123.858 592.92C123.858 593.16 123.65 593.312 123.21 593.312C122.73 593.312 122.154 593.048 121.874 592.784L121.434 593.496ZM125.334 592.064C125.334 593.304 126.222 594.096 127.398 594.096C127.998 594.096 128.598 593.92 128.99 593.56L128.542 592.904C128.294 593.144 127.87 593.288 127.51 593.288C126.854 593.288 126.462 592.88 126.398 592.392H129.27V592.168C129.27 590.904 128.486 590.04 127.334 590.04C126.158 590.04 125.334 590.944 125.334 592.064ZM127.334 590.848C128.006 590.848 128.262 591.336 128.286 591.704H126.382C126.43 591.32 126.702 590.848 127.334 590.848ZM131.3 594.096C131.724 594.096 131.996 593.984 132.148 593.848L131.932 593.08C131.876 593.136 131.732 593.192 131.58 593.192C131.356 593.192 131.228 593.008 131.228 592.768V591.024H132.012V590.136H131.228V589.08H130.204V590.136H129.564V591.024H130.204V593.04C130.204 593.728 130.588 594.096 131.3 594.096ZM132.371 593.496C132.779 593.872 133.427 594.096 134.099 594.096C135.171 594.096 135.771 593.568 135.771 592.856C135.771 591.896 134.883 591.72 134.219 591.592C133.787 591.504 133.483 591.416 133.483 591.176C133.483 590.952 133.723 590.816 134.091 590.816C134.563 590.816 135.003 591.016 135.235 591.264L135.635 590.568C135.259 590.264 134.739 590.04 134.083 590.04C133.067 590.04 132.499 590.608 132.499 591.256C132.499 592.176 133.355 592.336 134.019 592.464C134.459 592.552 134.795 592.648 134.795 592.92C134.795 593.16 134.587 593.312 134.147 593.312C133.667 593.312 133.091 593.048 132.811 592.784L132.371 593.496Z" fill="#4EB7FF"/>
<path fill-rule="evenodd" clip-rule="evenodd" d="M122.152 566.865V573.955C122.152 574.709 122.764 575.319 123.519 575.319H131.038V576.364C131.038 577.267 130.303 578 129.397 578H117.64C116.734 578 116 577.267 116 576.364V564.636C116 563.733 116.734 563 117.64 563H129.397C130.303 563 131.038 563.733 131.038 564.636V565.501H123.519C122.764 565.501 122.152 566.111 122.152 566.865ZM131.038 566.864H123.519V573.955H131.721V566.864H131.038ZM126.8 571.773C126.045 571.773 125.433 571.163 125.433 570.41C125.433 569.657 126.045 569.046 126.8 569.046C127.555 569.046 128.167 569.657 128.167 570.41C128.167 571.163 127.555 571.773 126.8 571.773Z" fill="#4EB7FF"/>
<path d="M56.6608 594H58.7648C60.4368 594 61.5968 592.944 61.5968 591.336C61.5968 589.728 60.4368 588.664 58.7648 588.664H56.6608V594ZM57.7968 593V589.664H58.7648C59.8608 589.664 60.4368 590.392 60.4368 591.336C60.4368 592.24 59.8208 593 58.7648 593H57.7968ZM64.699 594H65.715V591.504C65.715 590.392 64.907 590.04 64.027 590.04C63.419 590.04 62.811 590.232 62.339 590.648L62.723 591.328C63.051 591.024 63.435 590.872 63.851 590.872C64.363 590.872 64.699 591.128 64.699 591.52V592.056C64.443 591.744 63.987 591.584 63.475 591.584C62.859 591.584 62.131 591.912 62.131 592.816C62.131 593.68 62.859 594.096 63.475 594.096C63.979 594.096 64.435 593.912 64.699 593.6V594ZM64.699 593.072C64.531 593.296 64.211 593.408 63.883 593.408C63.483 593.408 63.155 593.2 63.155 592.84C63.155 592.472 63.483 592.256 63.883 592.256C64.211 592.256 64.531 592.368 64.699 592.592V593.072ZM66.3868 593.496C66.7948 593.872 67.4428 594.096 68.1148 594.096C69.1868 594.096 69.7868 593.568 69.7868 592.856C69.7868 591.896 68.8988 591.72 68.2348 591.592C67.8028 591.504 67.4988 591.416 67.4988 591.176C67.4988 590.952 67.7388 590.816 68.1068 590.816C68.5788 590.816 69.0188 591.016 69.2508 591.264L69.6508 590.568C69.2748 590.264 68.7548 590.04 68.0988 590.04C67.0828 590.04 66.5148 590.608 66.5148 591.256C66.5148 592.176 67.3708 592.336 68.0348 592.464C68.4748 592.552 68.8108 592.648 68.8108 592.92C68.8108 593.16 68.6028 593.312 68.1628 593.312C67.6828 593.312 67.1068 593.048 66.8268 592.784L66.3868 593.496ZM73.1513 594H74.1673V591.256C74.1673 590.504 73.7593 590.04 72.9113 590.04C72.2793 590.04 71.7993 590.344 71.5513 590.64V588.664H70.5353V594H71.5513V591.4C71.7273 591.168 72.0393 590.944 72.4313 590.944C72.8713 590.944 73.1513 591.112 73.1513 591.648V594ZM75.1759 594H76.1919V593.512C76.4959 593.888 76.9199 594.096 77.3839 594.096C78.3599 594.096 79.0959 593.36 79.0959 592.072C79.0959 590.808 78.3679 590.04 77.3839 590.04C76.9279 590.04 76.4959 590.24 76.1919 590.632V588.664H75.1759V594ZM76.1919 592.76V591.392C76.3599 591.136 76.7359 590.944 77.0639 590.944C77.6559 590.944 78.0479 591.4 78.0479 592.072C78.0479 592.744 77.6559 593.192 77.0639 593.192C76.7359 593.192 76.3599 593.008 76.1919 592.76ZM81.6554 594.096C82.9354 594.096 83.7034 593.168 83.7034 592.064C83.7034 590.968 82.9354 590.04 81.6554 590.04C80.3834 590.04 79.6154 590.968 79.6154 592.064C79.6154 593.168 80.3834 594.096 81.6554 594.096ZM81.6554 593.192C81.0234 593.192 80.6714 592.672 80.6714 592.064C80.6714 591.464 81.0234 590.944 81.6554 590.944C82.2874 590.944 82.6474 591.464 82.6474 592.064C82.6474 592.672 82.2874 593.192 81.6554 593.192ZM86.7771 594H87.7931V591.504C87.7931 590.392 86.9851 590.04 86.1051 590.04C85.4971 590.04 84.8891 590.232 84.4171 590.648L84.8011 591.328C85.1291 591.024 85.5131 590.872 85.9291 590.872C86.4411 590.872 86.7771 591.128 86.7771 591.52V592.056C86.5211 591.744 86.0651 591.584 85.5531 591.584C84.9371 591.584 84.2091 591.912 84.2091 592.816C84.2091 593.68 84.9371 594.096 85.5531 594.096C86.0571 594.096 86.5131 593.912 86.7771 593.6V594ZM86.7771 593.072C86.6091 593.296 86.2891 593.408 85.9611 593.408C85.5611 593.408 85.2331 593.2 85.2331 592.84C85.2331 592.472 85.5611 592.256 85.9611 592.256C86.2891 592.256 86.6091 592.368 86.7771 592.592V593.072ZM88.8009 594H89.8169V591.448C89.9849 591.2 90.4329 591.016 90.7689 591.016C90.8809 591.016 90.9769 591.024 91.0489 591.04V590.048C90.5689 590.048 90.0889 590.32 89.8169 590.664V590.136H88.8009V594ZM94.3397 594H95.3637V588.664H94.3397V590.632C94.0357 590.24 93.6037 590.04 93.1477 590.04C92.1637 590.04 91.4357 590.808 91.4357 592.072C91.4357 593.36 92.1717 594.096 93.1477 594.096C93.6117 594.096 94.0357 593.888 94.3397 593.512V594ZM94.3397 592.752C94.1637 593.008 93.8037 593.192 93.4597 593.192C92.8837 593.192 92.4837 592.736 92.4837 592.072C92.4837 591.4 92.8837 590.944 93.4597 590.944C93.8037 590.944 94.1637 591.128 94.3397 591.384V592.752Z" fill="#B2B3B5"/>
<path fill-rule="evenodd" clip-rule="evenodd" d="M76.2 563L69 568.6V577.4C69 577.824 69.1686 578.231 69.4686 578.531C69.7687 578.831 70.1757 579 70.6 579H73.8V572.6H78.6V579H81.8C82.2243 579 82.6313 578.831 82.9314 578.531C83.2314 578.231 83.4 577.824 83.4 577.4V568.6L76.2 563Z" fill="#C6C7C9"/>
<path d="M56 216.5H296" stroke="#E3E4E6"/>
<path d="M63.1111 203.222C67.0385 203.222 70.2222 200.038 70.2222 196.111C70.2222 192.184 67.0385 189 63.1111 189C59.1838 189 56 192.184 56 196.111C56 200.038 59.1838 203.222 63.1111 203.222Z" stroke="#B2B3B5" stroke-width="2" stroke-linecap="round" stroke-linejoin="round"/>
<path d="M71.9995 205L68.1328 201.133" stroke="#B2B3B5" stroke-width="2" stroke-linecap="round" stroke-linejoin="round"/>
<path d="M90.088 202.154C92.104 202.154 93.322 201.048 93.322 199.354C93.322 197.982 92.678 197.212 90.536 196.4C89.024 195.812 88.408 195.378 88.408 194.566C88.408 193.81 89.08 193.194 89.99 193.194C90.774 193.194 91.432 193.628 91.824 194.37L92.874 193.726C92.272 192.648 91.292 192.074 90.032 192.074C88.324 192.074 87.162 193.096 87.162 194.608C87.162 195.924 87.862 196.638 89.864 197.408C91.488 198.038 92.062 198.542 92.062 199.466C92.062 200.376 91.376 201.034 90.102 201.034C88.856 201.034 87.96 200.292 87.792 199.06L86.56 199.368C86.826 201.048 88.24 202.154 90.088 202.154ZM100.952 198.29C100.952 196.61 100.014 194.972 97.9004 194.972C95.8004 194.972 94.7644 196.68 94.7644 198.584C94.7644 200.502 95.8144 202.126 98.0124 202.126C99.1044 202.126 99.9444 201.776 100.728 200.936L99.9024 200.194C99.3144 200.824 98.7264 201.02 98.0264 201.02C96.7524 201.02 96.0104 200.222 95.9684 198.906H100.91C100.938 198.724 100.952 198.486 100.952 198.29ZM95.9684 197.926C96.0524 196.89 96.7104 195.98 97.8864 195.98C99.0484 195.98 99.7484 196.736 99.7904 197.8C99.7904 197.856 99.7904 197.898 99.8044 197.926H95.9684ZM105.213 194.972C104.009 194.972 103.071 195.434 102.301 196.414L103.169 197.142C103.715 196.414 104.373 196.036 105.185 196.036C106.235 196.036 106.823 196.624 106.823 197.688V197.968H105.297C104.135 197.968 103.449 198.08 102.931 198.36C102.371 198.668 102.063 199.228 102.063 199.956C102.063 201.286 103.001 202.126 104.485 202.126C105.521 202.126 106.347 201.706 106.837 200.964L106.921 202H108.027V197.688C108.027 195.98 106.977 194.972 105.213 194.972ZM104.765 201.118C103.841 201.118 103.267 200.684 103.267 200.012C103.267 199.662 103.393 199.396 103.617 199.214C103.911 198.99 104.387 198.906 105.437 198.906H106.823V198.976C106.823 200.25 105.983 201.118 104.765 201.118ZM113.378 194.972C112.65 194.972 111.824 195.294 111.39 196.176V195.098H110.186V202H111.39V198.276C111.39 196.848 112.076 196.106 113.126 196.106C113.434 196.106 113.728 196.176 114.022 196.316L114.61 195.308C114.204 195.07 113.812 194.972 113.378 194.972ZM117.931 202.126C119.219 202.126 120.241 201.426 120.703 200.166L119.597 199.746C119.359 200.572 118.729 201.062 117.917 201.062C116.545 201.062 115.957 199.872 115.957 198.57C115.957 197.268 116.545 196.036 117.917 196.036C118.715 196.036 119.345 196.54 119.625 197.38L120.773 196.918C120.227 195.602 119.191 194.972 117.917 194.972C115.775 194.972 114.725 196.75 114.725 198.57C114.725 200.46 115.845 202.126 117.931 202.126ZM125.784 194.972C124.818 194.972 124.02 195.364 123.558 196.036V192.242H122.354V202H123.558V198.962C123.558 197.03 124.216 196.036 125.462 196.036C126.442 196.036 126.89 196.652 126.89 197.996V202H128.094V197.702C128.094 195.924 127.282 194.972 125.784 194.972ZM138.147 202.168C140.135 202.168 141.619 201.202 142.333 199.382L141.157 198.948C140.653 200.292 139.603 200.978 138.147 200.978C136.061 200.978 134.857 199.564 134.857 197.1C134.857 194.65 136.061 193.264 138.189 193.264C139.659 193.264 140.667 193.908 141.157 195.252L142.305 194.804C141.619 192.998 140.177 192.074 138.189 192.074C135.347 192.074 133.611 193.978 133.611 197.1C133.611 200.25 135.333 202.168 138.147 202.168ZM147.093 194.972C146.365 194.972 145.539 195.294 145.105 196.176V195.098H143.901V202H145.105V198.276C145.105 196.848 145.791 196.106 146.841 196.106C147.149 196.106 147.443 196.176 147.737 196.316L148.325 195.308C147.919 195.07 147.527 194.972 147.093 194.972ZM150.437 204.856H151.739L155.561 195.098H154.231L152.257 200.488L150.087 195.098H148.757L151.613 201.888L150.437 204.856ZM160.291 194.972C159.395 194.972 158.611 195.294 158.107 195.952V195.098H156.903V204.856H158.107V201.132C158.569 201.748 159.367 202.126 160.291 202.126C162.209 202.126 163.315 200.67 163.315 198.542C163.315 196.414 162.195 194.972 160.291 194.972ZM160.067 201.062C158.695 201.062 158.009 199.984 158.009 198.542C158.009 197.044 158.737 196.022 160.067 196.022C161.369 196.022 162.111 197.002 162.111 198.542C162.111 200.04 161.411 201.062 160.067 201.062ZM168.201 196.078V195.098H166.507V192.368L165.303 193.278V195.098H164.169V196.078H165.303V200.278C165.303 201.58 166.087 202.126 167.081 202.126C167.445 202.126 167.823 202.056 168.201 201.93V200.908C167.893 201.006 167.613 201.062 167.375 201.062C166.829 201.062 166.507 200.782 166.507 200.152V196.078H168.201ZM172.594 202.126C174.624 202.126 175.968 200.544 175.968 198.542C175.968 196.526 174.61 194.972 172.594 194.972C170.564 194.972 169.248 196.526 169.248 198.542C169.248 200.558 170.564 202.126 172.594 202.126ZM172.594 201.062C171.194 201.062 170.452 199.956 170.452 198.542C170.452 197.128 171.18 196.036 172.594 196.036C174.008 196.036 174.764 197.114 174.764 198.542C174.764 199.942 174.008 201.062 172.594 201.062Z" fill="#B2B3B5"/>
<path d="M56 164.5H296" stroke="#E3E4E6"/>
<path d="M220.891 146H222.412V142.256H226.741V140.917H222.412V138.668H226.832V137.329H220.891V146ZM230.191 146H231.712V137.329H230.191V146ZM241.691 146H243.355L239.949 137.329H238.051L234.645 146H236.309L236.946 144.336H241.054L241.691 146ZM239 138.616L240.625 142.997H237.375L239 138.616ZM247.519 146H249.04V138.668H251.666V137.329H244.893V138.668H247.519V146Z" fill="#B2B3B5"/>
<path d="M56 164H176" stroke="#24459F" stroke-width="2"/>
<path d="M90.9638 146.156C92.7838 146.156 93.8498 145.246 94.5128 144.206L93.2128 143.543C92.7968 144.271 91.9648 144.804 90.9638 144.804C89.3128 144.804 88.0388 143.491 88.0388 141.671C88.0388 139.851 89.3128 138.538 90.9638 138.538C91.9648 138.538 92.7968 139.084 93.2128 139.799L94.5128 139.136C93.8628 138.096 92.7838 137.186 90.9638 137.186C88.4678 137.186 86.4788 139.006 86.4788 141.671C86.4788 144.336 88.4678 146.156 90.9638 146.156ZM102.683 146H104.438L102.319 142.594C103.359 142.425 104.373 141.593 104.373 140.046C104.373 138.447 103.255 137.329 101.539 137.329H97.7301V146H99.2511V142.763H100.759L102.683 146ZM102.813 140.046C102.813 140.878 102.189 141.424 101.331 141.424H99.2511V138.668H101.331C102.189 138.668 102.813 139.214 102.813 140.046ZM110.134 146H111.655V142.399L115.009 137.329H113.267L110.901 141.047L108.509 137.329H106.767L110.134 142.399V146ZM117.955 146H119.476V142.763H121.764C123.571 142.763 124.598 141.515 124.598 140.046C124.598 138.577 123.584 137.329 121.764 137.329H117.955V146ZM123.038 140.046C123.038 140.878 122.414 141.424 121.556 141.424H119.476V138.668H121.556C122.414 138.668 123.038 139.214 123.038 140.046ZM129.931 146H131.452V138.668H134.078V137.329H127.305V138.668H129.931V146ZM136.647 141.671C136.647 144.258 138.48 146.156 141.08 146.156C143.68 146.156 145.513 144.258 145.513 141.671C145.513 139.084 143.68 137.186 141.08 137.186C138.48 137.186 136.647 139.084 136.647 141.671ZM143.953 141.671C143.953 143.452 142.822 144.804 141.08 144.804C139.325 144.804 138.207 143.452 138.207 141.671C138.207 139.877 139.325 138.538 141.08 138.538C142.822 138.538 143.953 139.877 143.953 141.671Z" fill="#23459B"/>
<g filter="url(#filter4_b_4967_79152)">
<path fill-rule="evenodd" clip-rule="evenodd" d="M44 40H308V112H44V40Z" fill="#24459F"/>
</g>
<path d="M191.945 77.1113L184.679 83.2108L177.914 77.3655L172.401 83.9733" stroke="url(#paint1_linear_4967_79152)" stroke-width="1.67167" stroke-linecap="square"/>
<ellipse cx="178.095" cy="77.618" rx="2.06141" ry="2.09001" fill="#D7DDEF"/>
<ellipse cx="184.84" cy="82.3686" rx="2.06141" ry="2.09001" fill="#A9B9E9"/>
<ellipse cx="192.104" cy="77.09" rx="2.06141" ry="2.09001" fill="#7291F2"/>
<path fill-rule="evenodd" clip-rule="evenodd" d="M150.979 98.6502H155.625L150.117 92.7095L155.104 87.3108H150.729L147.125 91.1734H146.627V82.3865H143V98.6502H146.627V94.5617H147.284L150.979 98.6502ZM168.597 92.9553C168.597 89.3513 165.759 86.9334 162.404 86.9334C158.981 86.9334 156.144 89.3513 156.144 92.9553C156.144 96.5821 158.981 99 162.404 99C165.759 99 168.597 96.5821 168.597 92.9553ZM165.138 93.0542C165.138 94.8608 163.805 96.0271 162.404 96.0271C160.936 96.0271 159.603 94.8608 159.603 93.0542C159.603 91.2704 160.936 90.0813 162.404 90.0813C163.805 90.0813 165.138 91.2704 165.138 93.0542ZM174.477 83.8954C174.477 82.8005 173.602 81.8619 172.39 81.8619C171.179 81.8619 170.326 82.8005 170.326 83.8954C170.326 85.035 171.179 85.8841 172.39 85.8841C173.602 85.8841 174.477 85.035 174.477 83.8954ZM170.672 98.6503H174.304V87.2832H170.672V98.6503ZM199.413 98.6598H203.014V87.2736H199.413V88.1809C198.535 87.3871 197.365 86.9334 195.902 86.9334C192.909 86.9334 190.388 89.383 190.388 92.9667C190.388 96.5731 192.909 99 195.902 99C197.365 99 198.535 98.5464 199.413 97.7525V98.6598ZM199.382 93.0542C199.382 94.838 198.066 96.0271 196.592 96.0271C195.004 96.0271 193.847 94.838 193.847 93.0542C193.847 91.2933 195.004 90.0813 196.592 90.0813C198.066 90.0813 199.382 91.2933 199.382 93.0542ZM205.608 98.6502H209.24V82.3865H205.608V98.6502ZM180.77 93.7158V98.8276H177.123V87.3654H180.77V88.3324C181.611 87.1604 182.579 86.9138 183.953 86.9138C187.526 86.9138 188.626 89.9615 188.76 91.901V98.8276H185.113V91.901C185.113 91.1182 184.503 89.9231 183.109 89.9394C181.205 89.9615 180.655 90.7927 180.77 93.7158Z" fill="white"/>
</g>
<g filter="url(#filter5_d_4967_79152)">
<rect x="12" y="280" width="328" height="76" rx="16" fill="white"/>
</g>
<path d="M174.256 307.006C174.256 310.03 175.696 313.216 179.062 313.216C182.428 313.216 183.868 310.03 183.868 307.006C183.868 303.982 182.428 300.814 179.062 300.814C175.696 300.814 174.256 303.982 174.256 307.006ZM181.726 307.006C181.726 309.292 181.024 311.344 179.062 311.344C177.1 311.344 176.398 309.292 176.398 307.006C176.398 304.72 177.1 302.686 179.062 302.686C181.024 302.686 181.726 304.72 181.726 307.006ZM185.088 311.938C185.088 312.622 185.664 313.198 186.348 313.198C187.032 313.198 187.608 312.622 187.608 311.938C187.608 311.254 187.032 310.678 186.348 310.678C185.664 310.678 185.088 311.254 185.088 311.938ZM189.302 307.006C189.302 310.03 190.742 313.216 194.108 313.216C197.474 313.216 198.914 310.03 198.914 307.006C198.914 303.982 197.474 300.814 194.108 300.814C190.742 300.814 189.302 303.982 189.302 307.006ZM196.772 307.006C196.772 309.292 196.07 311.344 194.108 311.344C192.146 311.344 191.444 309.292 191.444 307.006C191.444 304.72 192.146 302.686 194.108 302.686C196.07 302.686 196.772 304.72 196.772 307.006ZM200.394 307.006C200.394 310.03 201.834 313.216 205.2 313.216C208.566 313.216 210.006 310.03 210.006 307.006C210.006 303.982 208.566 300.814 205.2 300.814C201.834 300.814 200.394 303.982 200.394 307.006ZM207.864 307.006C207.864 309.292 207.162 311.344 205.2 311.344C203.238 311.344 202.536 309.292 202.536 307.006C202.536 304.72 203.238 302.686 205.2 302.686C207.162 302.686 207.864 304.72 207.864 307.006ZM211.486 307.006C211.486 310.03 212.926 313.216 216.292 313.216C219.658 313.216 221.098 310.03 221.098 307.006C221.098 303.982 219.658 300.814 216.292 300.814C212.926 300.814 211.486 303.982 211.486 307.006ZM218.956 307.006C218.956 309.292 218.254 311.344 216.292 311.344C214.33 311.344 213.628 309.292 213.628 307.006C213.628 304.72 214.33 302.686 216.292 302.686C218.254 302.686 218.956 304.72 218.956 307.006ZM222.578 307.006C222.578 310.03 224.018 313.216 227.384 313.216C230.75 313.216 232.19 310.03 232.19 307.006C232.19 303.982 230.75 300.814 227.384 300.814C224.018 300.814 222.578 303.982 222.578 307.006ZM230.048 307.006C230.048 309.292 229.346 311.344 227.384 311.344C225.422 311.344 224.72 309.292 224.72 307.006C224.72 304.72 225.422 302.686 227.384 302.686C229.346 302.686 230.048 304.72 230.048 307.006ZM233.364 311.272C234.174 312.352 235.758 313.216 237.9 313.216C240.672 313.216 242.418 311.758 242.418 309.724C242.418 307.87 240.798 306.916 239.628 306.808C240.87 306.592 242.238 305.656 242.238 304.054C242.238 302.038 240.492 300.814 237.9 300.814C235.902 300.814 234.444 301.624 233.526 302.704L234.606 304.018C235.47 303.154 236.478 302.686 237.702 302.686C239.052 302.686 240.132 303.262 240.132 304.378C240.132 305.476 239.07 305.962 237.666 305.962C237.198 305.962 236.496 305.962 236.28 305.944V307.834C236.46 307.816 237.162 307.816 237.666 307.816C239.376 307.816 240.33 308.32 240.33 309.508C240.33 310.624 239.412 311.344 237.828 311.344C236.55 311.344 235.272 310.786 234.498 309.886L233.364 311.272ZM245.446 313H247.75L252.412 302.452V300.994H243.754V302.848H249.982L245.446 313ZM253.28 311.272C254.09 312.352 255.674 313.216 257.816 313.216C260.588 313.216 262.334 311.758 262.334 309.724C262.334 307.87 260.714 306.916 259.544 306.808C260.786 306.592 262.154 305.656 262.154 304.054C262.154 302.038 260.408 300.814 257.816 300.814C255.818 300.814 254.36 301.624 253.442 302.704L254.522 304.018C255.386 303.154 256.394 302.686 257.618 302.686C258.968 302.686 260.048 303.262 260.048 304.378C260.048 305.476 258.986 305.962 257.582 305.962C257.114 305.962 256.412 305.962 256.196 305.944V307.834C256.376 307.816 257.078 307.816 257.582 307.816C259.292 307.816 260.246 308.32 260.246 309.508C260.246 310.624 259.328 311.344 257.744 311.344C256.466 311.344 255.188 310.786 254.414 309.886L253.28 311.272ZM269.412 313H271.518V310.282H273.12V308.428H271.518V300.994H268.62L263.688 308.59V310.282H269.412V313ZM269.412 302.884V308.428H265.758L269.412 302.884ZM274.633 311.362C275.605 312.514 277.027 313.216 279.097 313.216C281.779 313.216 283.669 311.65 283.669 309.148C283.669 306.7 281.851 305.278 279.835 305.278C278.683 305.278 277.693 305.746 277.117 306.322V302.848H282.877V300.994H275.011V307.708L276.505 308.14C277.261 307.42 278.107 307.096 279.133 307.096C280.609 307.096 281.545 307.942 281.545 309.238C281.545 310.408 280.591 311.344 279.079 311.344C277.729 311.344 276.649 310.84 275.839 309.922L274.633 311.362ZM290.445 313H295.917C298.113 313 299.391 311.686 299.391 309.76C299.391 308.32 298.329 307.006 297.051 306.808C298.149 306.574 299.157 305.566 299.157 304.054C299.157 302.254 297.879 300.994 295.791 300.994H290.445V313ZM291.939 306.196V302.326H295.539C296.889 302.326 297.609 303.19 297.609 304.27C297.609 305.368 296.889 306.196 295.539 306.196H291.939ZM291.939 311.668V307.528H295.611C297.087 307.528 297.843 308.5 297.843 309.598C297.843 310.876 297.015 311.668 295.611 311.668H291.939ZM304.437 313H305.931V302.326H309.747V300.994H300.639V302.326H304.437V313ZM316.874 313.216C319.052 313.216 320.492 312.208 321.5 310.84L320.222 310.138C319.538 311.164 318.296 311.884 316.874 311.884C314.3 311.884 312.302 309.85 312.302 307.006C312.302 304.144 314.3 302.128 316.874 302.128C318.296 302.128 319.538 302.866 320.222 303.874L321.482 303.172C320.528 301.822 319.052 300.796 316.874 300.796C313.472 300.796 310.754 303.316 310.754 307.006C310.754 310.696 313.472 313.216 316.874 313.216Z" fill="#414244"/>
<path d="M76.994 336H81.712C83.462 336 84.428 334.922 84.428 333.48C84.428 332.332 83.616 331.338 82.622 331.184C83.49 331.002 84.246 330.218 84.246 329.042C84.246 327.726 83.294 326.662 81.586 326.662H76.994V336ZM78.632 330.526V328.104H81.25C82.09 328.104 82.566 328.622 82.566 329.322C82.566 330.022 82.09 330.526 81.25 330.526H78.632ZM78.632 334.558V331.968H81.32C82.258 331.968 82.748 332.556 82.748 333.256C82.748 334.068 82.216 334.558 81.32 334.558H78.632ZM88.093 336H89.731V328.104H92.559V326.662H85.265V328.104H88.093V336ZM98.0017 336.168C99.9617 336.168 101.11 335.188 101.824 334.068L100.424 333.354C99.9757 334.138 99.0797 334.712 98.0017 334.712C96.2237 334.712 94.8517 333.298 94.8517 331.338C94.8517 329.378 96.2237 327.964 98.0017 327.964C99.0797 327.964 99.9757 328.552 100.424 329.322L101.824 328.608C101.124 327.488 99.9617 326.508 98.0017 326.508C95.3137 326.508 93.1717 328.468 93.1717 331.338C93.1717 334.208 95.3137 336.168 98.0017 336.168Z" fill="#909295" fill-opacity="0.98"/>
<path d="M251.653 336H253.291V326.662H251.863L249.175 329.378L250.127 330.372L251.653 328.79V336ZM254.983 336H261.745V334.558H257.601C260.107 332.668 261.689 331.128 261.689 329.406C261.689 327.544 260.107 326.522 258.301 326.522C256.999 326.522 255.683 327.026 254.857 328.02L255.809 329.098C256.397 328.426 257.237 327.978 258.329 327.978C259.183 327.978 260.023 328.426 260.023 329.406C260.023 330.75 258.609 331.968 254.983 334.712V336ZM262.945 334.656C263.575 335.496 264.807 336.168 266.473 336.168C268.629 336.168 269.987 335.034 269.987 333.452C269.987 332.01 268.727 331.268 267.817 331.184C268.783 331.016 269.847 330.288 269.847 329.042C269.847 327.474 268.489 326.522 266.473 326.522C264.919 326.522 263.785 327.152 263.071 327.992L263.911 329.014C264.583 328.342 265.367 327.978 266.319 327.978C267.369 327.978 268.209 328.426 268.209 329.294C268.209 330.148 267.383 330.526 266.291 330.526C265.927 330.526 265.381 330.526 265.213 330.512V331.982C265.353 331.968 265.899 331.968 266.291 331.968C267.621 331.968 268.363 332.36 268.363 333.284C268.363 334.152 267.649 334.712 266.417 334.712C265.423 334.712 264.429 334.278 263.827 333.578L262.945 334.656ZM272.104 337.862C272.874 337.316 273.42 336.434 273.42 335.468C273.42 334.656 272.902 334.194 272.328 334.194C271.81 334.194 271.376 334.628 271.376 335.16C271.376 335.678 271.74 336.042 272.216 336.042C272.3 336.042 272.412 336.014 272.454 336C272.356 336.476 271.894 337.05 271.446 337.316L272.104 337.862ZM278.924 336H280.562V333.886H281.808V332.444H280.562V326.662H278.308L274.472 332.57V333.886H278.924V336ZM278.924 328.132V332.444H276.082L278.924 328.132ZM283.237 335.118C283.867 335.748 284.763 336.154 285.911 336.154C288.613 336.154 290.027 334.026 290.027 331.338C290.027 328.734 288.921 326.508 286.177 326.508C284.091 326.508 282.733 327.922 282.733 329.644C282.733 331.632 284.189 332.668 285.869 332.668C286.961 332.668 287.941 331.982 288.375 331.352V331.632C288.375 333.158 287.605 334.698 285.911 334.698C285.029 334.698 284.483 334.39 283.993 333.886L283.237 335.118ZM288.347 330.162C287.885 330.834 287.101 331.254 286.303 331.254C285.295 331.254 284.399 330.736 284.399 329.588C284.399 328.846 285.043 327.964 286.261 327.964C287.703 327.964 288.263 329.154 288.347 330.162ZM295.283 332.374C295.283 334.67 296.557 336.168 299.091 336.168C301.625 336.168 302.899 334.684 302.899 332.36V326.662H301.737V332.346C301.737 334.054 300.813 335.132 299.091 335.132C297.369 335.132 296.445 334.054 296.445 332.346V326.662H295.283V332.374ZM304.526 334.684C305.296 335.552 306.486 336.168 308.11 336.168C310.63 336.168 311.554 334.782 311.554 333.424C311.554 331.464 309.818 330.988 308.292 330.582C307.102 330.26 306.024 329.98 306.024 329.042C306.024 328.16 306.822 327.558 307.942 327.558C308.964 327.558 309.944 327.908 310.644 328.678L311.344 327.824C310.56 326.998 309.454 326.522 308.026 326.522C306.192 326.522 304.82 327.572 304.82 329.112C304.82 330.946 306.486 331.366 307.984 331.758C309.216 332.094 310.35 332.402 310.35 333.522C310.35 334.236 309.818 335.132 308.152 335.132C306.836 335.132 305.828 334.488 305.212 333.802L304.526 334.684ZM313.289 336H316.481C319.379 336 321.269 333.998 321.269 331.338C321.269 328.692 319.379 326.662 316.481 326.662H313.289V336ZM314.451 334.964V327.698H316.481C318.791 327.698 320.065 329.322 320.065 331.338C320.065 333.34 318.749 334.964 316.481 334.964H314.451Z" fill="#909295"/>
<path d="M77.188 313H83.704C85.99 313 87.196 311.56 87.196 309.76C87.196 308.248 86.17 307.006 84.892 306.808C86.026 306.574 86.962 305.566 86.962 304.054C86.962 302.452 85.792 300.994 83.506 300.994H77.188V313ZM79.744 305.818V303.172H82.948C83.812 303.172 84.352 303.748 84.352 304.486C84.352 305.26 83.812 305.818 82.948 305.818H79.744ZM79.744 310.822V307.996H83.038C84.046 307.996 84.586 308.644 84.586 309.4C84.586 310.264 84.01 310.822 83.038 310.822H79.744ZM90.2035 303.028C90.9595 303.028 91.5715 302.416 91.5715 301.66C91.5715 300.904 90.9595 300.292 90.2035 300.292C89.4655 300.292 88.8355 300.904 88.8355 301.66C88.8355 302.416 89.4655 303.028 90.2035 303.028ZM89.0695 313H91.3555V304.306H89.0695V313ZM96.5383 313.216C97.4923 313.216 98.1043 312.964 98.4463 312.658L97.9603 310.93C97.8343 311.056 97.5103 311.182 97.1683 311.182C96.6643 311.182 96.3763 310.768 96.3763 310.228V306.304H98.1403V304.306H96.3763V301.93H94.0723V304.306H92.6323V306.304H94.0723V310.84C94.0723 312.388 94.9363 313.216 96.5383 313.216ZM99.1463 308.644C99.1463 311.326 101.072 313.216 103.754 313.216C105.536 313.216 106.616 312.442 107.192 311.632L105.698 310.246C105.284 310.822 104.654 311.182 103.862 311.182C102.476 311.182 101.504 310.156 101.504 308.644C101.504 307.132 102.476 306.124 103.862 306.124C104.654 306.124 105.284 306.466 105.698 307.06L107.192 305.674C106.616 304.864 105.536 304.09 103.754 304.09C101.072 304.09 99.1463 305.98 99.1463 308.644ZM112.719 313.216C115.599 313.216 117.327 311.128 117.327 308.644C117.327 306.178 115.599 304.09 112.719 304.09C109.857 304.09 108.129 306.178 108.129 308.644C108.129 311.128 109.857 313.216 112.719 313.216ZM112.719 311.182C111.297 311.182 110.505 310.012 110.505 308.644C110.505 307.294 111.297 306.124 112.719 306.124C114.141 306.124 114.951 307.294 114.951 308.644C114.951 310.012 114.141 311.182 112.719 311.182ZM120.157 303.028C120.913 303.028 121.525 302.416 121.525 301.66C121.525 300.904 120.913 300.292 120.157 300.292C119.419 300.292 118.789 300.904 118.789 301.66C118.789 302.416 119.419 303.028 120.157 303.028ZM119.023 313H121.309V304.306H119.023V313ZM129.443 313H131.729V306.862C131.729 305.17 130.811 304.09 128.903 304.09C127.481 304.09 126.419 304.774 125.861 305.44V304.306H123.575V313H125.861V307.15C126.239 306.628 126.941 306.124 127.841 306.124C128.813 306.124 129.443 306.538 129.443 307.744V313Z" fill="#414244"/>
<path fill-rule="evenodd" clip-rule="evenodd" d="M46.0002 300C36.059 300 28 308.059 28 318C28 327.941 36.059 336 46.0002 336C55.9413 336 64 327.941 64 318C64 308.059 55.9413 300 46.0002 300ZM53.3292 324.882C52.0233 325.793 50.6291 325.974 49.9732 326.059L49.924 326.066C49.6115 326.107 49.0762 326.15 48.5021 326.184V329.793H46.2804V326.242H44.5886V329.793H42.367V326.242H37.9969L38.4535 323.574H39.7821C40.2287 323.574 40.4152 323.533 40.602 323.356C40.7888 323.18 40.8304 322.91 40.8304 322.692V313.5C40.8304 312.924 40.7836 312.768 40.5188 312.472C40.2541 312.176 39.6315 312.137 39.2809 312.137H37.9967V309.83H42.3669V306.27H44.5882V309.83H46.2801V306.27H48.5018V309.873C50.158 309.976 51.3908 310.291 52.4669 311.087C53.8582 312.114 53.7852 313.9 53.7541 314.325C53.7231 314.751 53.5363 315.571 53.1622 316.1C52.789 316.63 51.8754 317.159 51.8754 317.159C51.8754 317.159 52.9548 317.387 53.713 317.958C54.4702 318.529 55.0314 319.536 54.9995 321.01C54.969 322.484 54.6681 323.948 53.3292 324.882ZM46.1572 317.086C47.0153 317.053 47.9279 316.86 48.5871 316.506C49.2469 316.152 49.6207 315.595 49.5991 314.758C49.5766 313.921 49.0053 313.213 48.0378 312.923C47.07 312.633 46.4217 312.612 45.6845 312.601C44.9478 312.591 44.2 312.655 44.2 312.655V317.086L44.2003 317.086C44.2202 317.086 45.3075 317.118 46.1572 317.086ZM49.3192 319.456C48.8902 319.261 47.9347 318.998 46.7973 318.93C45.6595 318.862 44.2 318.93 44.2 318.93V323.394C44.2 323.394 45.724 323.423 46.744 323.355C47.763 323.287 48.8151 323.054 49.341 322.791C49.8666 322.528 50.5 322.12 50.5 321.099C50.5 320.078 49.7486 319.65 49.3192 319.456Z" fill="#FFB11A"/>
<defs>
<filter id="filter0_d_4967_79152" x="4" y="0" width="368" height="672" filterUnits="userSpaceOnUse" color-interpolation-filters="sRGB">
<feFlood flood-opacity="0" result="BackgroundImageFix"/>
<feColorMatrix in="SourceAlpha" type="matrix" values="0 0 0 0 0 0 0 0 0 0 0 0 0 0 0 0 0 0 127 0" result="hardAlpha"/>
<feMorphology radius="4" operator="dilate" in="SourceAlpha" result="effect1_dropShadow_4967_79152"/>
<feOffset dx="12" dy="12"/>
<feGaussianBlur stdDeviation="16"/>
<feComposite in2="hardAlpha" operator="out"/>
<feColorMatrix type="matrix" values="0 0 0 0 0 0 0 0 0 0 0 0 0 0 0 0 0 0 0.12 0"/>
<feBlend mode="normal" in2="BackgroundImageFix" result="effect1_dropShadow_4967_79152"/>
<feBlend mode="normal" in="SourceGraphic" in2="effect1_dropShadow_4967_79152" result="shape"/>
</filter>
<filter id="filter1_d_4967_79152" x="32" y="48" width="296" height="580" filterUnits="userSpaceOnUse" color-interpolation-filters="sRGB">
<feFlood flood-opacity="0" result="BackgroundImageFix"/>
<feColorMatrix in="SourceAlpha" type="matrix" values="0 0 0 0 0 0 0 0 0 0 0 0 0 0 0 0 0 0 127 0" result="hardAlpha"/>
<feMorphology radius="4" operator="dilate" in="SourceAlpha" result="effect1_dropShadow_4967_79152"/>
<feOffset dx="4" dy="4"/>
<feGaussianBlur stdDeviation="6"/>
<feComposite in2="hardAlpha" operator="out"/>
<feColorMatrix type="matrix" values="0 0 0 0 0 0 0 0 0 0 0 0 0 0 0 0 0 0 0.08 0"/>
<feBlend mode="normal" in2="BackgroundImageFix" result="effect1_dropShadow_4967_79152"/>
<feBlend mode="normal" in="SourceGraphic" in2="effect1_dropShadow_4967_79152" result="shape"/>
</filter>
<filter id="filter2_bi_4967_79152" x="16.8172" y="525.817" width="318.366" height="109.366" filterUnits="userSpaceOnUse" color-interpolation-filters="sRGB">
<feFlood flood-opacity="0" result="BackgroundImageFix"/>
<feGaussianBlur in="BackgroundImage" stdDeviation="13.5914"/>
<feComposite in2="SourceAlpha" operator="in" result="effect1_backgroundBlur_4967_79152"/>
<feBlend mode="normal" in="SourceGraphic" in2="effect1_backgroundBlur_4967_79152" result="shape"/>
<feColorMatrix in="SourceAlpha" type="matrix" values="0 0 0 0 0 0 0 0 0 0 0 0 0 0 0 0 0 0 127 0" result="hardAlpha"/>
<feOffset dy="1"/>
<feComposite in2="hardAlpha" operator="arithmetic" k2="-1" k3="1"/>
<feColorMatrix type="matrix" values="0 0 0 0 0.909323 0 0 0 0 0.91316 0 0 0 0 0.920833 0 0 0 0.7 0"/>
<feBlend mode="normal" in2="shape" result="effect2_innerShadow_4967_79152"/>
</filter>
<filter id="filter3_d_4967_79152" x="132" y="512" width="96" height="96" filterUnits="userSpaceOnUse" color-interpolation-filters="sRGB">
<feFlood flood-opacity="0" result="BackgroundImageFix"/>
<feColorMatrix in="SourceAlpha" type="matrix" values="0 0 0 0 0 0 0 0 0 0 0 0 0 0 0 0 0 0 127 0" result="hardAlpha"/>
<feMorphology radius="2" operator="dilate" in="SourceAlpha" result="effect1_dropShadow_4967_79152"/>
<feOffset dx="4" dy="4"/>
<feGaussianBlur stdDeviation="8"/>
<feComposite in2="hardAlpha" operator="out"/>
<feColorMatrix type="matrix" values="0 0 0 0 0 0 0 0 0 0 0 0 0 0 0 0 0 0 0.1 0"/>
<feBlend mode="normal" in2="BackgroundImageFix" result="effect1_dropShadow_4967_79152"/>
<feBlend mode="normal" in="SourceGraphic" in2="effect1_dropShadow_4967_79152" result="shape"/>
</filter>
<filter id="filter4_b_4967_79152" x="24.972" y="20.972" width="302.056" height="110.056" filterUnits="userSpaceOnUse" color-interpolation-filters="sRGB">
<feFlood flood-opacity="0" result="BackgroundImageFix"/>
<feGaussianBlur in="BackgroundImage" stdDeviation="9.51399"/>
<feComposite in2="SourceAlpha" operator="in" result="effect1_backgroundBlur_4967_79152"/>
<feBlend mode="normal" in="SourceGraphic" in2="effect1_backgroundBlur_4967_79152" result="shape"/>
</filter>
<filter id="filter5_d_4967_79152" x="0" y="264" width="368" height="116" filterUnits="userSpaceOnUse" color-interpolation-filters="sRGB">
<feFlood flood-opacity="0" result="BackgroundImageFix"/>
<feColorMatrix in="SourceAlpha" type="matrix" values="0 0 0 0 0 0 0 0 0 0 0 0 0 0 0 0 0 0 127 0" result="hardAlpha"/>
<feMorphology radius="4" operator="dilate" in="SourceAlpha" result="effect1_dropShadow_4967_79152"/>
<feOffset dx="8" dy="4"/>
<feGaussianBlur stdDeviation="8"/>
<feComposite in2="hardAlpha" operator="out"/>
<feColorMatrix type="matrix" values="0 0 0 0 0 0 0 0 0 0 0 0 0 0 0 0 0 0 0.08 0"/>
<feBlend mode="normal" in2="BackgroundImageFix" result="effect1_dropShadow_4967_79152"/>
<feBlend mode="normal" in="SourceGraphic" in2="effect1_dropShadow_4967_79152" result="shape"/>
</filter>
<linearGradient id="paint0_linear_4967_79152" x1="176" y1="526" x2="176" y2="586" gradientUnits="userSpaceOnUse">
<stop stop-color="#4EB7FF"/>
<stop offset="1" stop-color="#16A0FF"/>
</linearGradient>
<linearGradient id="paint1_linear_4967_79152" x1="183.412" y1="73.6804" x2="178.618" y2="85.6028" gradientUnits="userSpaceOnUse">
<stop stop-color="#345BC1"/>
<stop offset="1" stop-color="white"/>
</linearGradient>
<clipPath id="clip0_4967_79152">
<rect width="26" height="26" fill="white" transform="translate(68 424)"/>
</clipPath>
</defs>
</svg>
